<?xml version="1.0" encoding="UTF-8" standalone="no"?>
<!-- Created with Inkscape (http://www.inkscape.org/) -->

<svg
   xmlns:dc="http://purl.org/dc/elements/1.1/"
   xmlns:cc="http://creativecommons.org/ns#"
   xmlns:rdf="http://www.w3.org/1999/02/22-rdf-syntax-ns#"
   xmlns:svg="http://www.w3.org/2000/svg"
   xmlns="http://www.w3.org/2000/svg"
   xmlns:sodipodi="http://sodipodi.sourceforge.net/DTD/sodipodi-0.dtd"
   xmlns:inkscape="http://www.inkscape.org/namespaces/inkscape"
   width="705.0177"
   height="800"
   id="svg2"
   version="1.1"
   inkscape:version="0.48.4 r9939"
   sodipodi:docname="Джек Воробей.svg">
  <defs
     id="defs4" />
  <sodipodi:namedview
     id="base"
     pagecolor="#ffffff"
     bordercolor="#666666"
     borderopacity="1.0"
     inkscape:pageopacity="0.0"
     inkscape:pageshadow="2"
     inkscape:zoom="0.12374369"
     inkscape:cx="438.61315"
     inkscape:cy="1813.3028"
     inkscape:document-units="px"
     inkscape:current-layer="layer1"
     showgrid="false"
     inkscape:window-width="1920"
     inkscape:window-height="1018"
     inkscape:window-x="-8"
     inkscape:window-y="-8"
     inkscape:window-maximized="1"
     showguides="false"
     fit-margin-top="0"
     fit-margin-left="0"
     fit-margin-right="0"
     fit-margin-bottom="0" />
  <metadata
     id="metadata7">
    <rdf:RDF>
      <cc:Work
         rdf:about="">
        <dc:format>image/svg+xml</dc:format>
        <dc:type
           rdf:resource="http://purl.org/dc/dcmitype/StillImage" />
        <dc:title />
      </cc:Work>
    </rdf:RDF>
  </metadata>
  <g
     inkscape:label="Layer 1"
     inkscape:groupmode="layer"
     id="layer1"
     transform="translate(1768.9275,-736.33135)">
    <g
       id="g3058"
       transform="matrix(0.42044094,0,0,0.42044094,-1025.198,890.39475)">
      <path
         sodipodi:nodetypes="cccccc"
         inkscape:connector-curvature="0"
         id="path4249"
         d="m -710.28773,367.43795 311.00807,1159.65515 -1141.28364,0 234.2857,-1323.29987 577.80717,34.34519 z"
         style="fill:#322b1a;fill-opacity:1;stroke:none" />
      <path
         sodipodi:nodetypes="ccccccccc"
         inkscape:connector-curvature="0"
         id="path4091"
         d="m -1282.034,187.63079 c 0,8.08122 0.1015,138.56422 0.1015,138.56422 -43.3966,181.37407 52.3045,334.59853 115.0559,501.87249 l 137.3808,62.62946 133.3401,-34.34519 139.40097,-145.46196 52.528,-226.27417 -16.264,-137.97248 16.264,-114.56566"
         style="fill:#7f4f39;fill-opacity:1;stroke:none" />
      <path
         sodipodi:nodetypes="ccc"
         inkscape:connector-curvature="0"
         id="path4093"
         d="m -1031.5162,385.62069 c -24.2179,86.21307 -112.4027,149.19159 -16.1624,189.90868 z"
         style="fill:#ffffff;stroke:none" />
      <path
         sodipodi:nodetypes="cccc"
         inkscape:connector-curvature="0"
         id="path4097"
         d="m -1146.6735,680.58523 c 39.5225,-5.75433 73.9343,-8.35356 111.1167,4.04061 48.0734,-17.14532 83.7419,12.07495 127.2793,32.32488 -92.4331,81.69597 -202.5283,22.81239 -238.396,-36.36549 z"
         style="fill:#993c26;fill-opacity:1;stroke:none" />
      <path
         sodipodi:nodetypes="ccc"
         inkscape:connector-curvature="0"
         id="path4099"
         d="m -1092.1253,694.72737 121.2183,10.10152 c -45.6516,12.94904 -77.8891,3.34549 -121.2183,-10.10152 z"
         style="fill:#000000;stroke:none" />
      <path
         sodipodi:nodetypes="ccccccc"
         inkscape:connector-curvature="0"
         id="path4095"
         d="m -1061.8207,599.77303 -141.4214,78.7919 c 78.341,3.52579 122.7648,1.75019 177.7869,-48.48733 27.8188,73.47499 120.3157,91.87661 191.9289,125.25892 l -143.4416,-145.46197 -44.4296,-2.13663 z"
         style="fill:#000000;stroke:none" />
      <path
         sodipodi:nodetypes="ccc"
         inkscape:connector-curvature="0"
         id="path4101"
         d="m -1213.3436,274.50391 161.6244,57.57869 c -52.1468,-21.39567 -143.0239,2.873 -161.6244,-57.57869 z"
         style="fill:#000000;stroke:none" />
      <path
         sodipodi:nodetypes="ccc"
         inkscape:connector-curvature="0"
         id="path4103"
         d="m -753.72423,319.96077 -185.86807,26.26397 c 73.1152,8.82027 124.8129,9.65083 185.86807,-26.26397 z"
         style="fill:#000000;stroke:none" />
      <path
         sodipodi:nodetypes="cccc"
         inkscape:connector-curvature="0"
         id="path4109"
         d="m -1164.8563,321.98108 c 51.129,6.65109 68.0255,16.13539 93.9442,56.56854 l -102.0254,2.0203 z"
         style="fill:#ffffff;stroke:none" />
      <path
         sodipodi:nodetypes="csccc"
         inkscape:connector-curvature="0"
         id="path4105"
         d="m -1160.8157,372.4887 c 25.2778,-22.67258 15.9367,-50.74395 -6.4793,-52.77303 -24.4905,-2.21687 -41.7517,24.05854 -19.7846,44.69181 -19.0029,33.1428 87.059,15.01486 117.6319,14.85642 -12.6268,-2.02031 -91.368,-6.7752 -91.368,-6.7752 z"
         style="fill:#000000;stroke:none" />
      <path
         sodipodi:nodetypes="ccccc"
         inkscape:connector-curvature="0"
         id="path4111"
         d="m -887.0643,356.32626 c 37.434,8.32749 68.354,14.81607 94.95427,41.41626 l -69.70047,13.13198 -39.396,-5.05076 z"
         style="fill:#ffffff;stroke:none" />
      <path
         sodipodi:nodetypes="ccscc"
         inkscape:connector-curvature="0"
         id="path4107"
         d="m -790.43633,399.04853 -89.55697,7.78536 c 24.84138,-10.6148 20.36729,-49.07774 -8.0812,-51.51778 -38.83153,-3.3306 -33.5058,37.05552 -21.264,49.12982 -20.9737,23.2551 75.3017,10.12142 118.90217,-5.3974 z"
         style="fill:#000000;stroke:none" />
      <path
         sodipodi:nodetypes="ccccc"
         inkscape:connector-curvature="0"
         id="path4113"
         d="m -722.40953,264.40238 6.0609,1216.22372 c 170.6589,71.5937 294.43187,65.4594 466.69047,30.3046 L -457.65446,458.17754 c -4.5267,-101.99371 -48.13547,-138.23063 -117.27277,-205.89699"
         style="fill:#000000;stroke:none" />
      <path
         transform="matrix(0.98525455,-0.17109492,0.17109492,0.98525455,1221.1279,497.87805)"
         d="m -1745.5436,53.321316 c 0,13.947295 -13.1155,25.253813 -29.2944,25.253813 -16.1789,0 -29.2944,-11.306518 -29.2944,-25.253813 0,-13.947296 13.1155,-25.253813 29.2944,-25.253813 16.1789,0 29.2944,11.306517 29.2944,25.253813 z"
         sodipodi:ry="25.253813"
         sodipodi:rx="29.294424"
         sodipodi:cy="53.321316"
         sodipodi:cx="-1774.838"
         id="path4115"
         style="fill:#550000;fill-opacity:1;stroke:none"
         sodipodi:type="arc" />
      <path
         transform="matrix(0.98525455,-0.17109492,0.17109492,0.98525455,1211.1753,499.60637)"
         d="m -1731.4014,188.68176 c 0,16.17887 -14.9246,29.29443 -33.3351,29.29443 -18.4104,0 -33.335,-13.11556 -33.335,-29.29443 0,-16.17886 14.9246,-29.29442 33.335,-29.29442 18.4105,0 33.3351,13.11556 33.3351,29.29442 z"
         sodipodi:ry="29.294424"
         sodipodi:rx="33.335033"
         sodipodi:cy="188.68176"
         sodipodi:cx="-1764.7365"
         id="path4117"
         style="fill:#550000;fill-opacity:1;stroke:none"
         sodipodi:type="arc" />
      <path
         transform="matrix(0.98525455,-0.17109492,0.17109492,0.98525455,1201.2228,501.33468)"
         d="m -1737.4624,249.29091 c 0,9.48416 -7.6884,17.17259 -17.1726,17.17259 -9.4842,0 -17.1726,-7.68843 -17.1726,-17.17259 0,-9.48416 7.6884,-17.1726 17.1726,-17.1726 9.4842,0 17.1726,7.68844 17.1726,17.1726 z"
         sodipodi:ry="17.172594"
         sodipodi:rx="17.172594"
         sodipodi:cy="249.29091"
         sodipodi:cx="-1754.635"
         id="path4119"
         style="fill:#808000;stroke:none"
         sodipodi:type="arc" />
      <path
         transform="matrix(1.1368321,-0.19741721,0.17109492,0.98525455,1441.6991,471.87788)"
         d="m -1690.9954,323.03204 c 0,24.54724 -17.6382,44.44672 -39.396,44.44672 -21.7577,0 -39.3959,-19.89948 -39.3959,-44.44672 0,-24.54724 17.6382,-44.44671 39.3959,-44.44671 21.7578,0 39.396,19.89947 39.396,44.44671 z"
         sodipodi:ry="44.446712"
         sodipodi:rx="39.39595"
         sodipodi:cy="323.03204"
         sodipodi:cx="-1730.3914"
         id="path4121"
         style="fill:#808000;stroke:none"
         sodipodi:type="arc" />
      <path
         transform="matrix(1.3300936,-0.23097814,0.17109492,0.98525455,1755.2825,405.11913)"
         d="m -1729.3811,405.86456 c 0,7.81049 -4.5226,14.14214 -10.1016,14.14214 -5.5789,0 -10.1015,-6.33165 -10.1015,-14.14214 0,-7.81048 4.5226,-14.14213 10.1015,-14.14213 5.579,0 10.1016,6.33165 10.1016,14.14213 z"
         sodipodi:ry="14.142136"
         sodipodi:rx="10.101525"
         sodipodi:cy="405.86456"
         sodipodi:cx="-1739.4827"
         id="path4123"
         style="fill:#808000;stroke:none"
         sodipodi:type="arc" />
      <rect
         transform="matrix(0.98525455,-0.17109492,0.17109492,0.98525455,0,0)"
         ry="52.830482"
         rx="11.141234"
         y="785.11157"
         x="-683.16455"
         height="61.619305"
         width="52.527931"
         id="rect4127"
         style="fill:#808000;stroke:none" />
      <path
         transform="matrix(0.98525455,-0.17109492,0.17109492,0.98525455,1153.9479,509.54421)"
         d="m -1729.8862,438.44199 c 0,4.04471 -3.6181,7.3236 -8.0812,7.3236 -4.4631,0 -8.0812,-3.27889 -8.0812,-7.3236 0,-4.04472 3.6181,-7.32361 8.0812,-7.32361 4.4631,0 8.0812,3.27889 8.0812,7.32361 z"
         sodipodi:ry="7.323606"
         sodipodi:rx="8.0812206"
         sodipodi:cy="438.44199"
         sodipodi:cx="-1737.9674"
         id="path4129"
         style="fill:#808000;stroke:none"
         sodipodi:type="arc" />
      <path
         transform="matrix(0.98525455,-0.17109492,0.17109492,0.98525455,1157.0276,527.27879)"
         sodipodi:type="arc"
         style="fill:#808000;stroke:none"
         id="path4131"
         sodipodi:cx="-1737.9674"
         sodipodi:cy="438.44199"
         sodipodi:rx="8.0812206"
         sodipodi:ry="7.323606"
         d="m -1729.8862,438.44199 c 0,4.04471 -3.6181,7.3236 -8.0812,7.3236 -4.4631,0 -8.0812,-3.27889 -8.0812,-7.3236 0,-4.04472 3.6181,-7.32361 8.0812,-7.32361 4.4631,0 8.0812,3.27889 8.0812,7.32361 z" />
      <path
         d="m -1729.8862,438.44199 c 0,4.04471 -3.6181,7.3236 -8.0812,7.3236 -4.4631,0 -8.0812,-3.27889 -8.0812,-7.3236 0,-4.04472 3.6181,-7.32361 8.0812,-7.32361 4.4631,0 8.0812,3.27889 8.0812,7.32361 z"
         sodipodi:ry="7.323606"
         sodipodi:rx="8.0812206"
         sodipodi:cy="438.44199"
         sodipodi:cx="-1737.9674"
         id="path4133"
         style="fill:#808000;stroke:none"
         sodipodi:type="arc"
         transform="matrix(0.98525455,-0.17109492,0.17109492,0.98525455,1160.7917,548.95439)" />
      <path
         transform="matrix(0.98525455,-0.17109492,0.17109492,0.98525455,1164.5558,570.62999)"
         sodipodi:type="arc"
         style="fill:#808000;stroke:none"
         id="path4135"
         sodipodi:cx="-1737.9674"
         sodipodi:cy="438.44199"
         sodipodi:rx="8.0812206"
         sodipodi:ry="7.323606"
         d="m -1729.8862,438.44199 c 0,4.04471 -3.6181,7.3236 -8.0812,7.3236 -4.4631,0 -8.0812,-3.27889 -8.0812,-7.3236 0,-4.04472 3.6181,-7.32361 8.0812,-7.32361 4.4631,0 8.0812,3.27889 8.0812,7.32361 z" />
      <path
         d="m -1729.8862,438.44199 c 0,4.04471 -3.6181,7.3236 -8.0812,7.3236 -4.4631,0 -8.0812,-3.27889 -8.0812,-7.3236 0,-4.04472 3.6181,-7.32361 8.0812,-7.32361 4.4631,0 8.0812,3.27889 8.0812,7.32361 z"
         sodipodi:ry="7.323606"
         sodipodi:rx="8.0812206"
         sodipodi:cy="438.44199"
         sodipodi:cx="-1737.9674"
         id="path4137"
         style="fill:#000080;stroke:none"
         sodipodi:type="arc"
         transform="matrix(0.67736251,-0.11762776,0.11551363,0.66518822,651.32904,824.61635)" />
      <path
         transform="matrix(0.67736251,-0.11762776,0.11551363,0.66518822,654.75094,844.32144)"
         sodipodi:type="arc"
         style="fill:#000080;stroke:none"
         id="path4139"
         sodipodi:cx="-1737.9674"
         sodipodi:cy="438.44199"
         sodipodi:rx="8.0812206"
         sodipodi:ry="7.323606"
         d="m -1729.8862,438.44199 c 0,4.04471 -3.6181,7.3236 -8.0812,7.3236 -4.4631,0 -8.0812,-3.27889 -8.0812,-7.3236 0,-4.04472 3.6181,-7.32361 8.0812,-7.32361 4.4631,0 8.0812,3.27889 8.0812,7.32361 z" />
      <path
         d="m -1729.8862,438.44199 c 0,4.04471 -3.6181,7.3236 -8.0812,7.3236 -4.4631,0 -8.0812,-3.27889 -8.0812,-7.3236 0,-4.04472 3.6181,-7.32361 8.0812,-7.32361 4.4631,0 8.0812,3.27889 8.0812,7.32361 z"
         sodipodi:ry="7.323606"
         sodipodi:rx="8.0812206"
         sodipodi:cy="438.44199"
         sodipodi:cx="-1737.9674"
         id="path4141"
         style="fill:#000080;stroke:none"
         sodipodi:type="arc"
         transform="matrix(0.67736251,-0.11762776,0.11551363,0.66518822,670.51504,841.58392)" />
      <path
         transform="matrix(0.67736251,-0.11762776,0.11551363,0.66518822,667.09314,821.87883)"
         sodipodi:type="arc"
         style="fill:#000080;stroke:none"
         id="path4143"
         sodipodi:cx="-1737.9674"
         sodipodi:cy="438.44199"
         sodipodi:rx="8.0812206"
         sodipodi:ry="7.323606"
         d="m -1729.8862,438.44199 c 0,4.04471 -3.6181,7.3236 -8.0812,7.3236 -4.4631,0 -8.0812,-3.27889 -8.0812,-7.3236 0,-4.04472 3.6181,-7.32361 8.0812,-7.32361 4.4631,0 8.0812,3.27889 8.0812,7.32361 z" />
      <path
         sodipodi:type="arc"
         style="fill:#808000;stroke:none"
         id="path4145"
         sodipodi:cx="-1739.4827"
         sodipodi:cy="405.86456"
         sodipodi:rx="10.101525"
         sodipodi:ry="14.142136"
         d="m -1729.3811,405.86456 c 0,7.81049 -4.5226,14.14214 -10.1016,14.14214 -5.5789,0 -10.1015,-6.33165 -10.1015,-14.14214 0,-7.81048 4.5226,-14.14213 10.1015,-14.14213 5.579,0 10.1016,6.33165 10.1016,14.14213 z"
         transform="matrix(1.3300936,-0.23097814,0.17109492,0.98525455,1786.6331,399.67492)" />
      <path
         transform="matrix(0.98525455,-0.17109492,0.17109492,0.98525455,1185.2985,504.1)"
         sodipodi:type="arc"
         style="fill:#808000;stroke:none"
         id="path4147"
         sodipodi:cx="-1737.9674"
         sodipodi:cy="438.44199"
         sodipodi:rx="8.0812206"
         sodipodi:ry="7.323606"
         d="m -1729.8862,438.44199 c 0,4.04471 -3.6181,7.3236 -8.0812,7.3236 -4.4631,0 -8.0812,-3.27889 -8.0812,-7.3236 0,-4.04472 3.6181,-7.32361 8.0812,-7.32361 4.4631,0 8.0812,3.27889 8.0812,7.32361 z" />
      <path
         d="m -1729.8862,438.44199 c 0,4.04471 -3.6181,7.3236 -8.0812,7.3236 -4.4631,0 -8.0812,-3.27889 -8.0812,-7.3236 0,-4.04472 3.6181,-7.32361 8.0812,-7.32361 4.4631,0 8.0812,3.27889 8.0812,7.32361 z"
         sodipodi:ry="7.323606"
         sodipodi:rx="8.0812206"
         sodipodi:cy="438.44199"
         sodipodi:cx="-1737.9674"
         id="path4149"
         style="fill:#808000;stroke:none"
         sodipodi:type="arc"
         transform="matrix(0.98525455,-0.17109492,0.17109492,0.98525455,1188.3782,521.83458)" />
      <path
         transform="matrix(0.98525455,-0.17109492,0.17109492,0.98525455,1192.1423,543.51019)"
         sodipodi:type="arc"
         style="fill:#808000;stroke:none"
         id="path4151"
         sodipodi:cx="-1737.9674"
         sodipodi:cy="438.44199"
         sodipodi:rx="8.0812206"
         sodipodi:ry="7.323606"
         d="m -1729.8862,438.44199 c 0,4.04471 -3.6181,7.3236 -8.0812,7.3236 -4.4631,0 -8.0812,-3.27889 -8.0812,-7.3236 0,-4.04472 3.6181,-7.32361 8.0812,-7.32361 4.4631,0 8.0812,3.27889 8.0812,7.32361 z" />
      <path
         d="m -1729.8862,438.44199 c 0,4.04471 -3.6181,7.3236 -8.0812,7.3236 -4.4631,0 -8.0812,-3.27889 -8.0812,-7.3236 0,-4.04472 3.6181,-7.32361 8.0812,-7.32361 4.4631,0 8.0812,3.27889 8.0812,7.32361 z"
         sodipodi:ry="7.323606"
         sodipodi:rx="8.0812206"
         sodipodi:cy="438.44199"
         sodipodi:cx="-1737.9674"
         id="path4153"
         style="fill:#808000;stroke:none"
         sodipodi:type="arc"
         transform="matrix(0.98525455,-0.17109492,0.17109492,0.98525455,1195.9064,565.18579)" />
      <path
         transform="matrix(0.67736251,-0.11762776,0.11551363,0.66518822,682.67964,819.17214)"
         sodipodi:type="arc"
         style="fill:#000080;stroke:none"
         id="path4155"
         sodipodi:cx="-1737.9674"
         sodipodi:cy="438.44199"
         sodipodi:rx="8.0812206"
         sodipodi:ry="7.323606"
         d="m -1729.8862,438.44199 c 0,4.04471 -3.6181,7.3236 -8.0812,7.3236 -4.4631,0 -8.0812,-3.27889 -8.0812,-7.3236 0,-4.04472 3.6181,-7.32361 8.0812,-7.32361 4.4631,0 8.0812,3.27889 8.0812,7.32361 z" />
      <path
         d="m -1729.8862,438.44199 c 0,4.04471 -3.6181,7.3236 -8.0812,7.3236 -4.4631,0 -8.0812,-3.27889 -8.0812,-7.3236 0,-4.04472 3.6181,-7.32361 8.0812,-7.32361 4.4631,0 8.0812,3.27889 8.0812,7.32361 z"
         sodipodi:ry="7.323606"
         sodipodi:rx="8.0812206"
         sodipodi:cy="438.44199"
         sodipodi:cx="-1737.9674"
         id="path4157"
         style="fill:#000080;stroke:none"
         sodipodi:type="arc"
         transform="matrix(0.67736251,-0.11762776,0.11551363,0.66518822,686.10154,838.87724)" />
      <path
         transform="matrix(0.67736251,-0.11762776,0.11551363,0.66518822,701.86564,836.13972)"
         sodipodi:type="arc"
         style="fill:#000080;stroke:none"
         id="path4159"
         sodipodi:cx="-1737.9674"
         sodipodi:cy="438.44199"
         sodipodi:rx="8.0812206"
         sodipodi:ry="7.323606"
         d="m -1729.8862,438.44199 c 0,4.04471 -3.6181,7.3236 -8.0812,7.3236 -4.4631,0 -8.0812,-3.27889 -8.0812,-7.3236 0,-4.04472 3.6181,-7.32361 8.0812,-7.32361 4.4631,0 8.0812,3.27889 8.0812,7.32361 z" />
      <path
         d="m -1729.8862,438.44199 c 0,4.04471 -3.6181,7.3236 -8.0812,7.3236 -4.4631,0 -8.0812,-3.27889 -8.0812,-7.3236 0,-4.04472 3.6181,-7.32361 8.0812,-7.32361 4.4631,0 8.0812,3.27889 8.0812,7.32361 z"
         sodipodi:ry="7.323606"
         sodipodi:rx="8.0812206"
         sodipodi:cy="438.44199"
         sodipodi:cx="-1737.9674"
         id="path4161"
         style="fill:#000080;stroke:none"
         sodipodi:type="arc"
         transform="matrix(0.67736251,-0.11762776,0.11551363,0.66518822,698.44374,816.43463)" />
      <path
         transform="matrix(1.3300936,-0.23097814,0.17109492,0.98525455,1817.9837,394.23071)"
         d="m -1729.3811,405.86456 c 0,7.81049 -4.5226,14.14214 -10.1016,14.14214 -5.5789,0 -10.1015,-6.33165 -10.1015,-14.14214 0,-7.81048 4.5226,-14.14213 10.1015,-14.14213 5.579,0 10.1016,6.33165 10.1016,14.14213 z"
         sodipodi:ry="14.142136"
         sodipodi:rx="10.101525"
         sodipodi:cy="405.86456"
         sodipodi:cx="-1739.4827"
         id="path4163"
         style="fill:#808000;stroke:none"
         sodipodi:type="arc" />
      <path
         d="m -1729.8862,438.44199 c 0,4.04471 -3.6181,7.3236 -8.0812,7.3236 -4.4631,0 -8.0812,-3.27889 -8.0812,-7.3236 0,-4.04472 3.6181,-7.32361 8.0812,-7.32361 4.4631,0 8.0812,3.27889 8.0812,7.32361 z"
         sodipodi:ry="7.323606"
         sodipodi:rx="8.0812206"
         sodipodi:cy="438.44199"
         sodipodi:cx="-1737.9674"
         id="path4165"
         style="fill:#808000;stroke:none"
         sodipodi:type="arc"
         transform="matrix(0.98525455,-0.17109492,0.17109492,0.98525455,1216.6492,498.6558)" />
      <path
         transform="matrix(0.98525455,-0.17109492,0.17109492,0.98525455,1219.7289,516.39038)"
         sodipodi:type="arc"
         style="fill:#808000;stroke:none"
         id="path4167"
         sodipodi:cx="-1737.9674"
         sodipodi:cy="438.44199"
         sodipodi:rx="8.0812206"
         sodipodi:ry="7.323606"
         d="m -1729.8862,438.44199 c 0,4.04471 -3.6181,7.3236 -8.0812,7.3236 -4.4631,0 -8.0812,-3.27889 -8.0812,-7.3236 0,-4.04472 3.6181,-7.32361 8.0812,-7.32361 4.4631,0 8.0812,3.27889 8.0812,7.32361 z" />
      <path
         d="m -1729.8862,438.44199 c 0,4.04471 -3.6181,7.3236 -8.0812,7.3236 -4.4631,0 -8.0812,-3.27889 -8.0812,-7.3236 0,-4.04472 3.6181,-7.32361 8.0812,-7.32361 4.4631,0 8.0812,3.27889 8.0812,7.32361 z"
         sodipodi:ry="7.323606"
         sodipodi:rx="8.0812206"
         sodipodi:cy="438.44199"
         sodipodi:cx="-1737.9674"
         id="path4169"
         style="fill:#808000;stroke:none"
         sodipodi:type="arc"
         transform="matrix(0.98525455,-0.17109492,0.17109492,0.98525455,1223.493,538.06598)" />
      <path
         transform="matrix(0.98525455,-0.17109492,0.17109492,0.98525455,1227.2571,559.74158)"
         sodipodi:type="arc"
         style="fill:#808000;stroke:none"
         id="path4171"
         sodipodi:cx="-1737.9674"
         sodipodi:cy="438.44199"
         sodipodi:rx="8.0812206"
         sodipodi:ry="7.323606"
         d="m -1729.8862,438.44199 c 0,4.04471 -3.6181,7.3236 -8.0812,7.3236 -4.4631,0 -8.0812,-3.27889 -8.0812,-7.3236 0,-4.04472 3.6181,-7.32361 8.0812,-7.32361 4.4631,0 8.0812,3.27889 8.0812,7.32361 z" />
      <path
         d="m -1729.8862,438.44199 c 0,4.04471 -3.6181,7.3236 -8.0812,7.3236 -4.4631,0 -8.0812,-3.27889 -8.0812,-7.3236 0,-4.04472 3.6181,-7.32361 8.0812,-7.32361 4.4631,0 8.0812,3.27889 8.0812,7.32361 z"
         sodipodi:ry="7.323606"
         sodipodi:rx="8.0812206"
         sodipodi:cy="438.44199"
         sodipodi:cx="-1737.9674"
         id="path4173"
         style="fill:#000080;stroke:none"
         sodipodi:type="arc"
         transform="matrix(0.67736251,-0.11762776,0.11551363,0.66518822,714.03034,813.72794)" />
      <path
         transform="matrix(0.67736251,-0.11762776,0.11551363,0.66518822,717.45214,833.43303)"
         sodipodi:type="arc"
         style="fill:#000080;stroke:none"
         id="path4175"
         sodipodi:cx="-1737.9674"
         sodipodi:cy="438.44199"
         sodipodi:rx="8.0812206"
         sodipodi:ry="7.323606"
         d="m -1729.8862,438.44199 c 0,4.04471 -3.6181,7.3236 -8.0812,7.3236 -4.4631,0 -8.0812,-3.27889 -8.0812,-7.3236 0,-4.04472 3.6181,-7.32361 8.0812,-7.32361 4.4631,0 8.0812,3.27889 8.0812,7.32361 z" />
      <path
         d="m -1729.8862,438.44199 c 0,4.04471 -3.6181,7.3236 -8.0812,7.3236 -4.4631,0 -8.0812,-3.27889 -8.0812,-7.3236 0,-4.04472 3.6181,-7.32361 8.0812,-7.32361 4.4631,0 8.0812,3.27889 8.0812,7.32361 z"
         sodipodi:ry="7.323606"
         sodipodi:rx="8.0812206"
         sodipodi:cy="438.44199"
         sodipodi:cx="-1737.9674"
         id="path4177"
         style="fill:#000080;stroke:none"
         sodipodi:type="arc"
         transform="matrix(0.67736251,-0.11762776,0.11551363,0.66518822,733.21624,830.69551)" />
      <path
         transform="matrix(0.67736251,-0.11762776,0.11551363,0.66518822,729.79434,810.99042)"
         sodipodi:type="arc"
         style="fill:#000080;stroke:none"
         id="path4179"
         sodipodi:cx="-1737.9674"
         sodipodi:cy="438.44199"
         sodipodi:rx="8.0812206"
         sodipodi:ry="7.323606"
         d="m -1729.8862,438.44199 c 0,4.04471 -3.6181,7.3236 -8.0812,7.3236 -4.4631,0 -8.0812,-3.27889 -8.0812,-7.3236 0,-4.04472 3.6181,-7.32361 8.0812,-7.32361 4.4631,0 8.0812,3.27889 8.0812,7.32361 z" />
      <path
         sodipodi:nodetypes="ccccccc"
         inkscape:connector-curvature="0"
         id="path4247"
         d="m -1157.7852,854.33147 119.198,51.51778 150.5127,-34.34519 130.30967,-140.4112 c 30.1186,265.0953 -32.4765,523.20714 -73.74107,783.87844 -76.8456,-184.7058 -183.5075,-340.9489 -307.0864,-494.9748 z"
         style="fill:#7f4f39;fill-opacity:1;stroke:none" />
      <path
         sodipodi:nodetypes="csscccccccccccccc"
         inkscape:connector-curvature="0"
         id="path4251"
         d="m -1285.6859,473.7788 c 5.2066,138.21363 65.7977,223.10494 93.6065,328.08407 20.8994,78.89563 35.3861,158.64773 36.9617,241.91663 1.4315,75.6522 -18.6976,144.5154 -38.0229,232.7958 -19.606,36.3203 -16.6321,63.946 -12.1218,103.0355 28.2263,-38.4506 24.2437,-73.4981 24.2437,-119.198 47.2222,-127.7945 61.5344,-263.20494 131.3198,-329.30974 66.783,83.55274 27.2506,171.87954 12.1218,270.72094 -26.5697,35.2542 -25.7919,61.2321 -24.2436,103.0355 23.9227,-33.5438 28.5997,-61.8044 30.3045,-101.0152 26.7369,-123.6821 68.4727,-215.39464 149.5026,-307.08642 144.97127,-153.49396 158.05837,-236.63273 177.78687,-406.08133 -47.2816,227.94213 -139.38207,358.21605 -292.94427,383.85797 6.3954,-44.75829 16.1759,-50.66727 -2.0203,-92.93403 l -74.7513,2.0203 c -8.7384,42.08998 -10.556,51.29633 14.1422,92.93404 -164.9875,-55.06758 -202.0303,-316.25399 -225.8855,-402.77603 z"
         style="fill:#000000;stroke:none" />
      <path
         transform="translate(1251.4286,800)"
         d="m -2257.6908,357.37723 c 0,7.25259 -7.2362,13.13198 -16.1625,13.13198 -8.9262,0 -16.1624,-5.87939 -16.1624,-13.13198 0,-7.2526 7.2362,-13.13199 16.1624,-13.13199 8.9263,0 16.1625,5.87939 16.1625,13.13199 z"
         sodipodi:ry="13.131983"
         sodipodi:rx="16.162441"
         sodipodi:cy="357.37723"
         sodipodi:cx="-2273.8533"
         id="path4253"
         style="fill:#808000;fill-opacity:1;stroke:none"
         sodipodi:type="arc" />
      <path
         transform="translate(1251.4286,800)"
         d="m -2268.8027,390.71228 c 0,7.81049 -6.3316,14.14214 -14.1421,14.14214 -7.8105,0 -14.1422,-6.33165 -14.1422,-14.14214 0,-7.81049 6.3317,-14.14214 14.1422,-14.14214 7.8105,0 14.1421,6.33165 14.1421,14.14214 z"
         sodipodi:ry="14.142136"
         sodipodi:rx="14.142136"
         sodipodi:cy="390.71228"
         sodipodi:cx="-2282.9448"
         id="path4257"
         style="fill:#550000;stroke:none"
         sodipodi:type="arc" />
      <path
         transform="translate(1251.4286,800)"
         d="m -2398.1022,386.67166 c 0,10.04205 -7.2362,18.18275 -16.1624,18.18275 -8.9263,0 -16.1625,-8.1407 -16.1625,-18.18275 0,-10.04205 7.2362,-18.18274 16.1625,-18.18274 8.9262,0 16.1624,8.14069 16.1624,18.18274 z"
         sodipodi:ry="18.182745"
         sodipodi:rx="16.162441"
         sodipodi:cy="386.67166"
         sodipodi:cx="-2414.2646"
         id="path4259"
         style="fill:#000080;fill-opacity:1;stroke:none"
         sodipodi:type="arc" />
      <path
         transform="translate(1251.4286,800)"
         d="m -2406.1833,420.51178 c 0,9.20522 -8.593,16.66752 -19.1929,16.66752 -10.6,0 -19.1929,-7.4623 -19.1929,-16.66752 0,-9.20522 8.5929,-16.66752 19.1929,-16.66752 10.5999,0 19.1929,7.4623 19.1929,16.66752 z"
         sodipodi:ry="16.667517"
         sodipodi:rx="19.192898"
         sodipodi:cy="420.51178"
         sodipodi:cx="-2425.3762"
         id="path4261"
         style="fill:#808000;stroke:none"
         sodipodi:type="arc" />
      <path
         sodipodi:nodetypes="cccccccccccc"
         inkscape:connector-curvature="0"
         id="path4265"
         d="m -1336.5822,78.534307 c -88.1701,82.242193 -144.6688,124.526103 -139.4011,240.416313 -74.847,77.95265 -98.4426,153.69495 -121.2183,254.55844 -126.9149,168.54881 -26.6981,255.37305 -171.7259,398.0001 123.0363,-67.59402 143.6016,-87.38381 141.4213,-218.19294 l 42.4265,-58.58885 -10.1016,135.36044 c -110.8547,145.29041 -51.2796,391.50619 -32.3249,612.15249 124.3652,41.3705 241.9283,32.3392 369.7159,24.2437 -6.4503,-326.5403 -25.8955,-651.85612 -44.4467,-977.82775 l 42.9166,-299.00516 29.8143,-101.015253"
         style="fill:#000000;stroke:none" />
      <path
         inkscape:connector-curvature="0"
         id="path4267"
         d="m -1389.1102,230.0572 870.75147,76.77159 8.0813,-230.314781 -866.71087,-50.50763 z"
         style="fill:#993c26;fill-opacity:1;stroke:none" />
      <path
         sodipodi:nodetypes="cccc"
         inkscape:connector-curvature="0"
         id="path4269"
         d="m -1362.8462,104.79828 -303.0457,666.70068 c 3.1916,64.04738 0.7449,63.86192 34.3451,10.10153 l 294.9646,-674.7819"
         style="fill:#d7d0ab;fill-opacity:1;stroke:none" />
      <path
         sodipodi:nodetypes="cccc"
         inkscape:connector-curvature="0"
         id="path4271"
         d="m -1314.3589,102.77797 -278.8021,638.41641 c -0.2215,48.41893 4,35.98193 30.3046,4.04061 l 268.7006,-644.47732"
         style="fill:#d7d0ab;fill-opacity:1;stroke:none" />
      <path
         transform="translate(1251.4286,800)"
         d="m -2640.5388,-206.28789 c 0,21.19989 -17.1859,38.3858 -38.3858,38.3858 -21.1999,0 -38.3858,-17.18591 -38.3858,-38.3858 0,-21.19989 17.1859,-38.38579 38.3858,-38.38579 21.1999,0 38.3858,17.1859 38.3858,38.38579 z"
         sodipodi:ry="38.385796"
         sodipodi:rx="38.385796"
         sodipodi:cy="-206.28789"
         sodipodi:cx="-2678.9246"
         id="path4273"
         style="fill:#808000;fill-opacity:1;stroke:none"
         sodipodi:type="arc" />
      <path
         transform="matrix(0.99363346,-0.11266123,0.11266123,0.99363346,1239.015,511.24974)"
         d="m -2568.8179,-40.117794 c 0,5.299972 -6.7839,9.596449 -15.1523,9.596449 -8.3684,0 -15.1523,-4.296477 -15.1523,-9.596449 0,-5.299972 6.7839,-9.596449 15.1523,-9.596449 8.3684,0 15.1523,4.296477 15.1523,9.596449 z"
         sodipodi:ry="9.5964489"
         sodipodi:rx="15.152288"
         sodipodi:cy="-40.117794"
         sodipodi:cx="-2583.9702"
         id="path4275"
         style="fill:#808000;stroke:none"
         sodipodi:type="arc" />
      <path
         transform="matrix(0.99363346,-0.11266123,0.11266123,0.99363346,1233.4945,511.87568)"
         d="m -2558.7163,3.8238406 c 0,16.7367554 -8.8191,30.3045764 -19.698,30.3045764 -10.8789,0 -19.698,-13.567821 -19.698,-30.3045764 0,-16.7367556 8.8191,-30.3045766 19.698,-30.3045766 10.8789,0 19.698,13.567821 19.698,30.3045766 z"
         sodipodi:ry="30.304577"
         sodipodi:rx="19.697975"
         sodipodi:cy="3.8238406"
         sodipodi:cx="-2578.4143"
         id="path4277"
         style="fill:#993c26;fill-opacity:1;stroke:none"
         sodipodi:type="arc" />
      <path
         transform="matrix(0.99363346,-0.11266123,0.11266123,0.99363346,1233.9964,511.81877)"
         d="m -2560.7367,59.382229 c 0,10.042053 -8.1407,18.182745 -18.1827,18.182745 -10.0421,0 -18.1828,-8.140692 -18.1828,-18.182745 0,-10.042053 8.1407,-18.182745 18.1828,-18.182745 10.042,0 18.1827,8.140692 18.1827,18.182745 z"
         sodipodi:ry="18.182745"
         sodipodi:rx="18.182745"
         sodipodi:cy="59.382229"
         sodipodi:cx="-2578.9194"
         id="path4279"
         style="fill:#000080;stroke:none"
         sodipodi:type="arc" />
      <rect
         transform="matrix(0.99363346,-0.11266123,0.11266123,0.99363346,0,0)"
         ry="52.830482"
         rx="11.141234"
         y="729.18939"
         x="-1434.1802"
         height="31.31473"
         width="47.477169"
         id="rect4283"
         style="fill:#ffffff;stroke:none" />
      <path
         transform="matrix(0.99363346,-0.11266123,0.11266123,0.99363346,1237.0076,511.47735)"
         d="m -2563.7672,139.18428 c 0,10.04205 -8.1407,18.18275 -18.1828,18.18275 -10.042,0 -18.1827,-8.1407 -18.1827,-18.18275 0,-10.04205 8.1407,-18.18274 18.1827,-18.18274 10.0421,0 18.1828,8.14069 18.1828,18.18274 z"
         sodipodi:ry="18.182745"
         sodipodi:rx="18.182745"
         sodipodi:cy="139.18428"
         sodipodi:cx="-2581.95"
         id="path4285"
         style="fill:#550000;fill-opacity:1;stroke:none"
         sodipodi:type="arc" />
      <path
         sodipodi:nodetypes="ccccc"
         inkscape:connector-curvature="0"
         id="path4301"
         d="m -1061.8207,-291.1815 c -167.661,-209.4808 -416.457,73.7535 -602.0509,179.80714 163.2851,166.421659 324.5567,264.84714 535.3808,272.74118 l -56.5685,-347.49247 z"
         style="fill:#d7d0ab;fill-opacity:1;stroke:none" />
      <path
         sodipodi:nodetypes="cccc"
         inkscape:connector-curvature="0"
         id="path4299"
         d="M -1143.6134,163.38713 -92.074356,58.331259 C -417.61686,-282.1581 -957.4341,-526.2952 -1200.1819,-188.14596 z"
         style="fill:#322b1a;fill-opacity:1;stroke:none" />
      <path
         style="font-size:medium;font-style:normal;font-variant:normal;font-weight:normal;font-stretch:normal;text-indent:0;text-align:start;text-decoration:none;line-height:normal;letter-spacing:normal;word-spacing:normal;text-transform:none;direction:ltr;block-progression:tb;writing-mode:lr-tb;text-anchor:start;baseline-shift:baseline;color:#000000;fill:#000000;fill-opacity:1;stroke:none;stroke-width:10;marker:none;visibility:visible;display:inline;overflow:visible;enable-background:accumulate;font-family:Sans;-inkscape-font-specification:Sans"
         d="m -1292.1384,-162.04018 a 5.0005,5.0005 0 0 0 -4.5312,5.84375 l 5.0937,31.71875 -17.5,19.1875 a 5.0005,5.0005 0 1 0 7.375,6.750001 l 12.1563,-13.312501 2.4687,15.281251 a 5.0013914,5.0013914 0 1 0 9.875,-1.59375 l -3.7187,-23.125001 21.6562,-23.71875 a 5.0005,5.0005 0 0 0 -4.0312,-8.4375 5.0005,5.0005 0 0 0 -3.3438,1.6875 l -16.3125,17.875 -3.8437,-23.875 a 5.0005,5.0005 0 0 0 -5.3438,-4.28125 z"
         id="path4429"
         inkscape:connector-curvature="0" />
      <path
         transform="matrix(1,0,0,0.77637933,0,210.63545)"
         d="m -1318.7541,934.93195 c 0,2.37104 -1.3568,4.29314 -3.0304,4.29314 -1.6737,0 -3.0305,-1.9221 -3.0305,-4.29314 0,-2.37104 1.3568,-4.29315 3.0305,-4.29315 1.6736,0 3.0304,1.92211 3.0304,4.29315 z"
         sodipodi:ry="4.293148"
         sodipodi:rx="3.0304575"
         sodipodi:cy="934.93195"
         sodipodi:cx="-1321.7845"
         id="path3255"
         style="fill:#ffffff;fill-opacity:1;stroke:none"
         sodipodi:type="arc" />
      <path
         transform="matrix(1,0,0,0.77637933,16,210.63545)"
         sodipodi:type="arc"
         style="fill:#ffffff;fill-opacity:1;stroke:none"
         id="path3257"
         sodipodi:cx="-1321.7845"
         sodipodi:cy="934.93195"
         sodipodi:rx="3.0304575"
         sodipodi:ry="4.293148"
         d="m -1318.7541,934.93195 c 0,2.37104 -1.3568,4.29314 -3.0304,4.29314 -1.6737,0 -3.0305,-1.9221 -3.0305,-4.29314 0,-2.37104 1.3568,-4.29315 3.0305,-4.29315 1.6736,0 3.0304,1.92211 3.0304,4.29315 z" />
      <path
         d="m -1318.7541,934.93195 c 0,2.37104 -1.3568,4.29314 -3.0304,4.29314 -1.6737,0 -3.0305,-1.9221 -3.0305,-4.29314 0,-2.37104 1.3568,-4.29315 3.0305,-4.29315 1.6736,0 3.0304,1.92211 3.0304,4.29315 z"
         sodipodi:ry="4.293148"
         sodipodi:rx="3.0304575"
         sodipodi:cy="934.93195"
         sodipodi:cx="-1321.7845"
         id="path3259"
         style="fill:#ffffff;fill-opacity:1;stroke:none"
         sodipodi:type="arc"
         transform="matrix(1,0,0,0.77637933,16,221.50476)" />
      <path
         transform="matrix(1,0,0,0.77637933,0,221.50476)"
         sodipodi:type="arc"
         style="fill:#ffffff;fill-opacity:1;stroke:none"
         id="path3261"
         sodipodi:cx="-1321.7845"
         sodipodi:cy="934.93195"
         sodipodi:rx="3.0304575"
         sodipodi:ry="4.293148"
         d="m -1318.7541,934.93195 c 0,2.37104 -1.3568,4.29314 -3.0304,4.29314 -1.6737,0 -3.0305,-1.9221 -3.0305,-4.29314 0,-2.37104 1.3568,-4.29315 3.0305,-4.29315 1.6736,0 3.0304,1.92211 3.0304,4.29315 z" />
      <path
         d="m -1318.7541,934.93195 c 0,2.37104 -1.3568,4.29314 -3.0304,4.29314 -1.6737,0 -3.0305,-1.9221 -3.0305,-4.29314 0,-2.37104 1.3568,-4.29315 3.0305,-4.29315 1.6736,0 3.0304,1.92211 3.0304,4.29315 z"
         sodipodi:ry="4.293148"
         sodipodi:rx="3.0304575"
         sodipodi:cy="934.93195"
         sodipodi:cx="-1321.7845"
         id="path3263"
         style="fill:#ffffff;fill-opacity:1;stroke:none"
         sodipodi:type="arc"
         transform="matrix(1,0,0,0.77637933,8,216.84649)" />
      <path
         sodipodi:type="arc"
         style="fill:#ffffff;fill-opacity:1;stroke:none"
         id="path3265"
         sodipodi:cx="-1321.7845"
         sodipodi:cy="934.93195"
         sodipodi:rx="3.0304575"
         sodipodi:ry="4.293148"
         d="m -1318.7541,934.93195 c 0,2.37104 -1.3568,4.29314 -3.0304,4.29314 -1.6737,0 -3.0305,-1.9221 -3.0305,-4.29314 0,-2.37104 1.3568,-4.29315 3.0305,-4.29315 1.6736,0 3.0304,1.92211 3.0304,4.29315 z"
         transform="matrix(1,0,0,0.77637933,-9.5964489,130.32832)" />
      <path
         d="m -1318.7541,934.93195 c 0,2.37104 -1.3568,4.29314 -3.0304,4.29314 -1.6737,0 -3.0305,-1.9221 -3.0305,-4.29314 0,-2.37104 1.3568,-4.29315 3.0305,-4.29315 1.6736,0 3.0304,1.92211 3.0304,4.29315 z"
         sodipodi:ry="4.293148"
         sodipodi:rx="3.0304575"
         sodipodi:cy="934.93195"
         sodipodi:cx="-1321.7845"
         id="path3267"
         style="fill:#ffffff;fill-opacity:1;stroke:none"
         sodipodi:type="arc"
         transform="matrix(1,0,0,0.77637933,6.4035511,130.32832)" />
      <path
         transform="matrix(1,0,0,0.77637933,6.4035511,141.19763)"
         sodipodi:type="arc"
         style="fill:#ffffff;fill-opacity:1;stroke:none"
         id="path3269"
         sodipodi:cx="-1321.7845"
         sodipodi:cy="934.93195"
         sodipodi:rx="3.0304575"
         sodipodi:ry="4.293148"
         d="m -1318.7541,934.93195 c 0,2.37104 -1.3568,4.29314 -3.0304,4.29314 -1.6737,0 -3.0305,-1.9221 -3.0305,-4.29314 0,-2.37104 1.3568,-4.29315 3.0305,-4.29315 1.6736,0 3.0304,1.92211 3.0304,4.29315 z" />
      <path
         d="m -1318.7541,934.93195 c 0,2.37104 -1.3568,4.29314 -3.0304,4.29314 -1.6737,0 -3.0305,-1.9221 -3.0305,-4.29314 0,-2.37104 1.3568,-4.29315 3.0305,-4.29315 1.6736,0 3.0304,1.92211 3.0304,4.29315 z"
         sodipodi:ry="4.293148"
         sodipodi:rx="3.0304575"
         sodipodi:cy="934.93195"
         sodipodi:cx="-1321.7845"
         id="path3271"
         style="fill:#ffffff;fill-opacity:1;stroke:none"
         sodipodi:type="arc"
         transform="matrix(1,0,0,0.77637933,-9.5964489,141.19763)" />
      <path
         transform="matrix(1,0,0,0.77637933,-1.5964489,136.53936)"
         sodipodi:type="arc"
         style="fill:#ffffff;fill-opacity:1;stroke:none"
         id="path3273"
         sodipodi:cx="-1321.7845"
         sodipodi:cy="934.93195"
         sodipodi:rx="3.0304575"
         sodipodi:ry="4.293148"
         d="m -1318.7541,934.93195 c 0,2.37104 -1.3568,4.29314 -3.0304,4.29314 -1.6737,0 -3.0305,-1.9221 -3.0305,-4.29314 0,-2.37104 1.3568,-4.29315 3.0305,-4.29315 1.6736,0 3.0304,1.92211 3.0304,4.29315 z" />
      <path
         transform="matrix(1.7727272,0,0,2.0312499,896.3955,-356.70753)"
         d="m -1150.5637,346.26556 c 0,2.23157 -2.4874,4.04061 -5.5558,4.04061 -3.0684,0 -5.5558,-1.80904 -5.5558,-4.04061 0,-2.23156 2.4874,-4.04061 5.5558,-4.04061 3.0684,0 5.5558,1.80905 5.5558,4.04061 z"
         sodipodi:ry="4.0406103"
         sodipodi:rx="5.5558391"
         sodipodi:cy="346.26556"
         sodipodi:cx="-1156.1195"
         id="path3266"
         style="fill:#ffffff;fill-opacity:1;stroke:none"
         sodipodi:type="arc" />
      <path
         sodipodi:type="arc"
         style="fill:#ffffff;fill-opacity:1;stroke:none"
         id="path3268"
         sodipodi:cx="-1156.1195"
         sodipodi:cy="346.26556"
         sodipodi:rx="5.5558391"
         sodipodi:ry="4.0406103"
         d="m -1150.5637,346.26556 c 0,2.23157 -2.4874,4.04061 -5.5558,4.04061 -3.0684,0 -5.5558,-1.80904 -5.5558,-4.04061 0,-2.23156 2.4874,-4.04061 5.5558,-4.04061 3.0684,0 5.5558,1.80905 5.5558,4.04061 z"
         transform="matrix(1.7727272,0,0,2.0312499,1177.723,-320.34204)" />
    </g>
  </g>
</svg>
