<?xml version="1.0" encoding="UTF-8" standalone="no"?>
<!-- Created with Inkscape (http://www.inkscape.org/) -->
<svg xmlns:rdf="http://www.w3.org/1999/02/22-rdf-syntax-ns#" xmlns="http://www.w3.org/2000/svg" xmlns:cc="http://creativecommons.org/ns#" xmlns:xlink="http://www.w3.org/1999/xlink" xmlns:dc="http://purl.org/dc/elements/1.1/" xmlns:svg="http://www.w3.org/2000/svg" xmlns:inkscape="http://www.inkscape.org/namespaces/inkscape" xmlns:sodipodi="http://sodipodi.sourceforge.net/DTD/sodipodi-0.dtd" xmlns:ns1="http://sozi.baierouge.fr" id="svg2" viewBox="0 0 563.68 366.12" version="1.1" inkscape:version="0.91 r13725">
  <defs id="defs4">
    <filter id="filter6065-2" color-interpolation-filters="sRGB">
      <feGaussianBlur id="feGaussianBlur6067-4" stdDeviation="2.6862547"/>
    </filter>
    <linearGradient id="linearGradient7017" y2="364.86" gradientUnits="userSpaceOnUse" x2="328.47" gradientTransform="translate(-.89636 .89636)" y1="219.65" x1="298.89">
      <stop id="stop6027-1" style="stop-color:#808080" offset="0"/>
      <stop id="stop6029-4" style="stop-color:#808080;stop-opacity:0" offset="1"/>
    </linearGradient>
  </defs>
  <g id="layer1" transform="translate(-88.763 -61.901)">
    <g id="g6069" transform="matrix(1.634 0 0 1.634 -148.32 -275.62)">
      <path id="path6055" style="filter:url(#filter6065-2);fill:#4d4d4d" d="m344.56 425.01c-2.1129-4.4321-4.5185-10.599-7.2022-15.016-3.0155-6.2756-7.385-12.985-12.004-17.834-6.2453-7.8933-15.282-13.782-24.712-17.07-8.5596-1.2927-15.316 5.1579-20.752 10.728-0.44875-7.4764 1.6319-16.517-3.3439-23.075-0.80914-4.0966-6.0079-5.6072-8.3972-7.7334-5.5684-2.4722-11.773-3.2776-17.818-1.4766-5.4676 1.4632-10.542 3.251-15.455 6.457-4.3059 2.4018-7.4744 5.4318-11.553 8.5593-5.2578 1.8732 2.8445-16.08-2.5644-20.572-1.9208-5.3938-8.5252-6.5124-13.027-8.9237-9.0187-1.7821-17.923 0.0989-26.421 2.4667-4.7017 1.0103-8.8955 4.4859-12.904 6.8741-3.8134 2.6354-7.032 4.395-10.625 6.7907-0.83213-8.1817 2.518-15.823 3.8325-23.838 1.2727-5.6891 3.6269-11.215 4.789-16.976 2.3653-4.6599 3.8984-9.678 5.9048-14.296 3.0421-6.0938 5.9942-12.016 9.0027-18.02 2.4018-3.6174 5.4744-8.307 8.1024-12.163 2.7874-3.2777 5.1536-6.7961 8.4025-9.9107 3.9167-3.9275 7.6076-7.9206 12.154-10.812 4.17-2.954-0.99373 10.202-0.34296 13.565 1.1356 5.7718 1.438 12.311 4.6943 17.369 2.4475 3.5563 4.6156 6.7562 7.6523 9.9107 6.4995 7.368 14.429 13.165 23.257 17.593 4.9075 2.565 10.089 4.2741 15.305 5.9826 8.2223 1.8466 16.561 4.16 25.358 4.3547 7.6466 2.153 15.323 1.4629 10.746-8.2009-3.1108-9.8105-3.6931-18.764 3.8084-9.0678 3.9966 5.9468 18.074 3.2213 18.808-4.7563 0.9079-6.2942 0.29446-18.602 7.6758 3.3949-0.10628 4.0522 2.7867 8.3409 10.879 5.4988 4.8794-2.0305 6.9452-2.3104 11.551-5.1885 3.5662-2.6847 7.1204-5.7755 10.199-8.4132 5.6586-5.6579 11.603-12.212 16.209-19.217 3.6483-6.8884 8.0601-14.398 8.812-22.636 2.4141-8.5801 0.037-17.956-3.1981-25.759-6.7753-9.8044 7.5907-3.5454 12.542-3.5606 6.7949 1.2148 13.375 2.707 19.656 5.5824 5.0436 1.6125 10.228 3.8628 14.854 6.4306 5.3664 2.1378 10.685 6.0888 15.905 9.0098 3.6032 2.4337 7.1643 5.1378 10.953 7.9586 4.4959 3.3757 8.7064 6.7486 12.529 10.849 3.4979 1.757 5.9732 5.4577 8.9038 8.2214 3.4774 4.1349 6.9269 8.0266 10.199 12.013-3.4442 0.86172-12.78-4.0402-18.334-5.0228-8.7043-0.63787-17.7-1.7489-25.556 2.8142-6.6273 1.9014-12.367 8.0995-13.058 15.123-2.7585 8.3239 1.4506 16.082 3.5066 23.687 2.7012 4.2306 4.6784 9.026 6.8057 13.253-2.8338 0.2249-8.6433-4.5315-12.979-5.1014-6.5033-2.7673-14.265-4.9155-21.832-3.4928-5.4912 0.99712-9.9757 4.0099-13.504 8.5942-3.297 6.0182-6.2318 14.356-3.6917 21.46 2.5287 8.2238 1.4531 9.4228-3.8106 3.0169-3.8342-4.0721-8.774-6.022-14.104-6.9075-5.2478-0.83887-11.546 1.4699-15.004 6.0065-7.8834 6.6849-10.42 17.193-12.41 26.579-3.1636 14.9-0.43343 30.285 2.2073 44.899l-0.30008 1.0511zm-31.86-101.55c-1.0496-7.6055-11.765 0.11232-2.0645 1.3934 1.0229 0.43302 1.7833-0.97615 2.0645-1.3934zm7.5489-0.86848c5.3702-6.9264-1.171-5.4158-3.7511-1.4922-1.556 3.0158 2.5338 1.951 3.7511 1.4922z"/>
      <path id="path5971" style="fill:#000000" d="m343.66 425.01c-2.1129-4.4321-4.5185-10.599-7.2022-15.016-3.0155-6.2756-7.385-12.985-12.004-17.834-6.2453-7.8933-15.282-13.782-24.712-17.07-8.5596-1.2927-15.316 5.1579-20.752 10.728-0.44875-7.4764 1.6319-16.517-3.3439-23.075-0.80914-4.0966-6.0079-5.6072-8.3972-7.7334-5.5684-2.4722-11.773-3.2776-17.818-1.4766-5.4676 1.4632-10.542 3.251-15.455 6.457-4.3059 2.4018-7.4744 5.4318-11.553 8.5593-5.2578 1.8732 2.8445-16.08-2.5644-20.572-1.9208-5.3938-8.5252-6.5124-13.027-8.9237-9.0187-1.7821-17.923 0.0989-26.421 2.4667-4.7017 1.0103-8.8955 4.4859-12.904 6.8741-3.8134 2.6354-7.032 4.395-10.625 6.7907-0.83213-8.1817 2.518-15.823 3.8325-23.838 1.2727-5.6891 3.6269-11.215 4.789-16.976 2.3653-4.6599 3.8984-9.678 5.9048-14.296 3.0421-6.0938 5.9942-12.016 9.0027-18.02 2.4018-3.6174 5.4744-8.307 8.1024-12.163 2.7874-3.2777 5.1536-6.7961 8.4025-9.9107 3.9167-3.9275 7.6076-7.9206 12.154-10.812 4.17-2.954-0.99373 10.202-0.34296 13.565 1.1356 5.7718 1.438 12.311 4.6943 17.369 2.4475 3.5563 4.6156 6.7562 7.6523 9.9107 6.4995 7.368 14.429 13.165 23.257 17.593 4.9075 2.565 10.089 4.2741 15.305 5.9826 8.2223 1.8466 16.561 4.16 25.358 4.3547 7.6466 2.153 15.323 1.4629 10.746-8.2009-3.1108-9.8105-3.6931-18.764 3.8084-9.0678 3.9966 5.9468 18.074 3.2213 18.808-4.7563 0.9079-6.2942 0.29446-18.602 7.6758 3.3949-0.10628 4.0522 2.7867 8.3409 10.879 5.4988 4.8794-2.0305 6.9452-2.3104 11.551-5.1885 3.5662-2.6847 7.1204-5.7755 10.199-8.4132 5.6586-5.6579 11.603-12.212 16.209-19.217 3.6483-6.8884 8.0601-14.398 8.812-22.636 2.4141-8.5801 0.037-17.956-3.1981-25.759-6.7753-9.8044 7.5907-3.5454 12.542-3.5606 6.7949 1.2148 13.375 2.707 19.656 5.5824 5.0436 1.6125 10.228 3.8628 14.854 6.4306 5.3664 2.1378 10.685 6.0888 15.905 9.0098 3.6032 2.4337 7.1643 5.1378 10.953 7.9586 4.4959 3.3757 8.7064 6.7486 12.529 10.849 3.4979 1.757 5.9732 5.4577 8.9038 8.2214 3.4774 4.1349 6.9269 8.0266 10.199 12.013-3.4442 0.86172-12.78-4.0402-18.334-5.0228-8.7043-0.63787-17.7-1.7489-25.556 2.8142-6.6273 1.9014-12.367 8.0995-13.058 15.123-2.7585 8.3239 1.4506 16.082 3.5066 23.687 2.7012 4.2306 4.6784 9.026 6.8057 13.253-2.8338 0.2249-8.6433-4.5315-12.979-5.1014-6.5033-2.7673-14.265-4.9155-21.832-3.4928-5.4912 0.99712-9.9757 4.0099-13.504 8.5942-3.297 6.0182-6.2318 14.356-3.6917 21.46 2.5287 8.2238 1.4531 9.4228-3.8106 3.0169-3.8342-4.0721-8.774-6.022-14.104-6.9075-5.2478-0.83887-11.546 1.4699-15.004 6.0065-7.8834 6.6849-10.42 17.193-12.41 26.579-3.1636 14.9-0.43343 30.285 2.2073 44.899l-0.30008 1.0511zm-31.85-101.55c-1.0496-7.6055-11.765 0.11232-2.0645 1.3934 1.0229 0.43302 1.7833-0.97615 2.0645-1.3934zm7.5489-0.86848c5.3702-6.9264-1.171-5.4158-3.7511-1.4922-1.556 3.0158 2.5338 1.951 3.7511 1.4922z"/>
      <path id="path6023" style="fill:url(#linearGradient7017)" d="m385.32 220.68c8.7144 20.062 0.77059 43.604-12.906 59.375-10.285 12.958-24.011 25.719-41.188 27.5-4.8788-0.47998-8.7333-4.6626-9.9375-9.2188-4.2461 6.9282-14.214 9.4607-21.406 5.625 2.4148 5.4464 2.4753 14.412-4.6562 16.094-8.9105 1.9065-17.755-1.8098-26.598-2.3633-25.8-5.0055-51.957-19.938-62.121-45.23-1.6893-5.2705-2.2831-10.878-1.9375-16.406-23.844 23.049-36.278 55.461-42.406 87.656 15.348-11.407 37.617-17.448 55.188-7.625 6.9946 4.1977 10.393 13.461 8.7812 21.031 12.553-9.6627 30.973-16.105 45.719-7.4688 7.8689 4.6267 11.638 14.08 11.906 22.938 8.2833-6.6139 20.671-5.7749 28.737 0.71117 9.9246 5.7472 17.896 15.449 23.825 24.351-0.97485-19.379 3.2001-41.665 19.25-53.938 7.8836-5.1674 19.182-4.0986 26.375 0.8125-1.6794-16.765 13.526-33.692 30.862-30.639 5.9177 0.55726 11.542 2.5187 17.076 4.6081-6.2383-12.448-9.9074-29.796 0.59375-40.875 10.632-11.184 28.55-12.072 42.375-8.5625-23.112-24.565-53.756-43.918-87.531-48.375zm-65.031 89.906c6.2082 0.11886 6.7922 8.8771 2.6562 12.125-2.2582 2.4888-6.0163 2.8716-8.875 2.0312-4.8125 6.2651-16.515-2.3179-11.625-8.7188 2.3726-3.6202 7.7811-3.5648 10.969-2.0312 1.8486-1.8163 4.2154-3.1998 6.875-3.4062z"/>
    </g>
  </g>
  <metadata>
    <rdf:RDF>
      <cc:Work>
        <dc:format>image/svg+xml</dc:format>
        <dc:type rdf:resource="http://purl.org/dc/dcmitype/StillImage"/>
        <cc:license rdf:resource="http://creativecommons.org/licenses/publicdomain/"/>
        <dc:publisher>
          <cc:Agent rdf:about="http://openclipart.org/">
            <dc:title>Openclipart</dc:title>
          </cc:Agent>
        </dc:publisher>
        <dc:title>Halloween H 6</dc:title>
        <dc:date>2010-09-21T20:16:45</dc:date>
        <dc:description>Glossy Bats</dc:description>
        <dc:source>https://openclipart.org/detail/86185/halloween-h-6-by-inky2010</dc:source>
        <dc:creator>
          <cc:Agent>
            <dc:title>inky2010</dc:title>
          </cc:Agent>
        </dc:creator>
        <dc:subject>
          <rdf:Bag>
            <rdf:li>2010</rdf:li>
            <rdf:li>Halloween</rdf:li>
            <rdf:li>Inkscape</rdf:li>
            <rdf:li>avatar</rdf:li>
            <rdf:li>bat</rdf:li>
            <rdf:li>bats</rdf:li>
            <rdf:li>black</rdf:li>
            <rdf:li>clip</rdf:li>
            <rdf:li>free</rdf:li>
            <rdf:li>ghost</rdf:li>
            <rdf:li>gloss</rdf:li>
            <rdf:li>glossy</rdf:li>
            <rdf:li>halloween2010</rdf:li>
            <rdf:li>icon</rdf:li>
            <rdf:li>inky2010</rdf:li>
            <rdf:li>shade</rdf:li>
            <rdf:li>silhouette</rdf:li>
            <rdf:li>spooky</rdf:li>
            <rdf:li>text</rdf:li>
          </rdf:Bag>
        </dc:subject>
      </cc:Work>
      <cc:License rdf:about="http://creativecommons.org/licenses/publicdomain/">
        <cc:permits rdf:resource="http://creativecommons.org/ns#Reproduction"/>
        <cc:permits rdf:resource="http://creativecommons.org/ns#Distribution"/>
        <cc:permits rdf:resource="http://creativecommons.org/ns#DerivativeWorks"/>
      </cc:License>
    </rdf:RDF>
  </metadata>
</svg>
