<?xml version="1.0" encoding="utf-8"?>
<!DOCTYPE svg PUBLIC "-//W3C//DTD SVG 1.1//EN" "http://www.w3.org/Graphics/SVG/1.1/DTD/svg11.dtd">
<svg version="1.1" id="Ebene_1" xmlns="http://www.w3.org/2000/svg" xmlns:xlink="http://www.w3.org/1999/xlink" x="0px" y="0px"
	 viewBox="0 0 331 294.3333" enable-background="new 0 0 331 294.3333" xml:space="preserve">
<g>
	<path fill="#FF4DCD" d="M129.8657,277.306c0.0352,4.457-1.1699,8.8261-3.4072,12.582
		C128.75,286.1829,130.0254,281.8333,129.8657,277.306z M108.8628,276.9974c-0.2022,2.6445,0.9546,5.2089,3.0586,6.8925
		c1.8154,1.4336,4.0224,1.9297,6.2666,1.4258c2.4116-0.6015,4.0947-2.7051,4.3032-5.1679c0.1597-1.8262-1.4038-3.6368-3.2319-3.7989
		c2.7378,0.1953,5.2627,1.4024,7.207,3.4571c1.1685,1.291,1.4775,3.2695,0.6074,4.7871l0.3648,0.3984
		c3.1255-4.9863,2.3828-12.5664-3.2642-15.7539c-3.2861-1.793-7.1098-1.918-10.3594-0.1738
		C110.917,270.6946,109.1099,273.7103,108.8628,276.9974z M95.2773,227.7103c-0.9419-1.1739-1.3994-2.5918-1.3066-4.0489
		c-0.0464,0.9785,0.7969,1.9317,1.772,1.9766c1.3135,0.0683,2.5405-0.6699,3.0332-1.9004c0.4253-1.1465,0.3188-2.3457-0.3047-3.4063
		c-0.7393-1.2265-2.0049-2.0214-3.4136-2.1074c-1.7519-0.1035-3.4717,0.6348-4.5395,2.0449
		c-1.1553,1.5899-1.3594,3.6133-0.6499,5.4786c1.2783,3.207,5.2226,4.1406,8.0756,2.8476l-0.185-0.2207
		C96.895,228.72,95.8765,228.4212,95.2773,227.7103z M87.3799,261.7415c-6.3701,8.7676-6.5996,21.2383,0.3379,30.0039
		c0.7636,0.9766,1.5859,1.8867,2.4546,2.7285l0.3808-0.0058c-8.2622-7.6953-9.792-20.7071-3.8901-30.7227
		c0.4014-0.6719,0.8301-1.3125,1.2827-1.9316c0.4512-0.6172,0.9277-1.2012,1.4233-1.7598
		c4.8946-5.5176,12.2896-11.0195,20.0752-9.4687c1.003,0.1992,2.2266,0.4199,3.1495,0.873
		c1.2514,0.6094,2.0053,1.9512,2.9248,2.9395c1.1206,1.2011,2.1645,2.4863,3.5717,3.3906c2.7461,1.7695,5.167,1.3574,8.2193,1.5957
		c0.937,0.0742,1.9092,0.2207,2.8701,0.4531c0.9531,0.2344,1.9033,0.5527,2.7827,0.9785c0.7715,0.3223,1.4346,0.7364,2.0068,1.2227
		c0.5738,0.4844,1.0616,1.0351,1.4917,1.6308c2.2583,2.7383,2.104,6.8379,4.7271,9.1719c2.332,1.9785,4.9473,3.6602,7.4702,5.418
		c0.6328,0.4394,1.2578,0.8828,1.8726,1.3359c4.2729,3.1817,8.707,7.7051,9.3588,13.3008l0.8399-0.0176
		c0.5371-6.4082-1.7564-12.8379-4.3462-18.5273c-0.2803-0.586-0.5801-1.1758-0.8843-1.7656
		c-2.1484-4.125-4.7466-8.1543-7.9228-11.5938c-0.5659-0.6914-1.1382-1.3769-1.7212-2.0527
		c-2.3306-2.6973-4.8135-5.2539-7.3892-7.6465c-0.9404-0.8008-1.9062-1.5684-2.8974-2.2949
		c-0.9947-0.7266-2.0098-1.42-3.0474-2.0684c-0.3682-0.1894-0.7378-0.3613-1.1094-0.5371
		c-1.1806-0.9824-2.7729-1.5606-4.3174-1.7578c-0.3794-0.0606-0.7631-0.1133-1.1489-0.1699
		c-1.5444-0.2207-3.1064-0.4532-4.2764-1.1426c-0.3315-0.1543-0.6328-0.334-0.8955-0.5371
		c-4.4741-3.9727,0.6231-7.0782,0.0494-11.2813c-0.6153-4.8535-7.899-2.3359-5.7779-9.4394
		c1.2149-3.7246,4.9746-7.4004-0.5224-9.9473c-3.9624-1.9141-7.7954,0.4648-11.7481,0.8965
		c10.2036,1.6738,8.1221,14.9707,9.6841,22.6387c0.9307,4.5625,3.5571,7.0879,6.9443,8.5c0.376,0.1562,0.7632,0.3027,1.1568,0.4296
		c0.1577,0.043,0.3203,0.084,0.4785,0.1192c-0.4751,0.0644-0.9453,0.1426-1.4155,0.2422c-0.4449,0.039-0.8912,0.0957-1.334,0.1523
		l-0.0142-0.1406c-7.083,0.5117-14.4175-0.5879-20.9697-3.4414c-6.4487-2.7539-12.3838-8.2324-13.2144-15.3867
		c-0.2773-3.4707,1.1079-7.1426,3.854-9.3594c2.708-2.2852,6.812-2.543,9.9678-0.959c3.2832,1.5234,4.8721,5.5801,3.9858,9.0527
		c-0.6357,3.7325-4.8515,5.8848-8.372,4.4825c3.4648,1.498,7.8652-0.5782,8.6128-4.4219c1.0009-3.541-0.5342-7.8438-3.9927-9.5586
		c-3.2925-1.7539-7.6548-1.5918-10.667,0.8145c-3.0205,2.33-4.6045,6.2285-4.3892,10.0136
		c0.7154,7.7578,6.9312,13.6582,13.5884,16.6895c4.4785,2.0722,9.2774,3.3379,14.1739,3.8594
		c-7.9341,2.3125-15.3614,6.1621-21.1226,12.2187C88.8735,259.8353,88.0879,260.763,87.3799,261.7415z M126.4585,289.888
		c-0.8467,1.3769-1.8364,2.6582-2.9439,3.834l0.1021-0.0039C124.6924,292.5403,125.6484,291.2571,126.4585,289.888z
		 M80.1396,181.2161c-2.4926,4.8223-1.5556,11.5801,3.648,14.4883c3.1973,1.7266,6.8965,1.832,10.041,0.123
		c1.8027-1.0293,3.1572-2.6132,3.9624-4.4589c0.5767-1.1504,0.9419-2.4161,1.0342-3.7286c0.1802-2.5664-0.9517-5.0429-2.9966-6.6679
		c-1.7627-1.375-3.9062-1.8496-6.0723-1.3516c-1.7641,0.4492-3.1191,1.7285-3.7612,3.3516
		c-0.3364,0.6601-0.561,1.3867-0.6216,2.1562c-0.0893,1.0606,0.4322,2.1094,1.2398,2.8106
		c-1.8213-0.5059-3.4917-1.5039-4.8623-2.9414c-1.1367-1.2461-1.6568-2.462-0.9976-4.128l0.586-1.3183
		C81.0039,180.0101,80.3306,180.7884,80.1396,181.2161z M220.5303,282.5442c-3.2144-2.9746-5.6084-6.8281-6.834-11.123
		C214.8213,275.8157,217.2744,279.6321,220.5303,282.5442z M218.4312,277.6282c-1.2574-1.2148-1.5269-3.1933-0.7681-4.7617
		c1.2832-2.5254,3.3677-4.3926,5.937-5.3535c-1.707,0.668-2.6982,2.8476-2.0308,4.5566c0.899,2.3047,3.1099,3.8438,5.5962,3.7422
		c2.2886-0.1543,4.2696-1.2539,5.6035-3.1367c1.5415-2.2129,1.9288-4.9961,0.9932-7.4785
		c-1.1684-3.0801-3.7534-5.4629-6.9936-6.2129c-3.6099-0.7559-7.2437,0.4473-9.8897,3.0918
		c-4.5166,4.6562-3.0918,12.1406,1.3149,16.0351L218.4312,277.6282z M77.8892,189.9349
		c-0.7906-9.4805,3.3789-18.8169,11.0561-24.9722c8.0982-6.1616,18.2061-8.2559,27.5278-4.9453
		c9.1133,3.31,16.9707,9.6631,20.9873,18.4448c2.7842,5.9649,3.5987,12.4277,2.7715,18.6738
		c-0.166,1.2481-0.3969,2.4883-0.6899,3.7149c-0.1372,3.4004-0.9424,6.4238-2.2441,9.1406
		c-0.4385,0.9063-0.9292,1.7813-1.4678,2.6231c-0.2012,0.3984-0.4258,0.7656-0.6616,1.1269
		c1.7226-7.1269,5.3408-15.3555,2.456-23.0312c-1.8042-4.9473-7.8574-8.668-12.916-6.1055
		c-2.1948,1.6406-2.5918,5.2148-0.6265,7.1015c0.9419,0.9239,2.2442,1.461,3.5557,1.4219c1.4824,0.2637,2.5244-1.459,1.5176-2.5781
		c0.9433,1.1699-0.0928,2.7402-1.5191,2.4531c-1.2671-0.0058-2.5151-0.5722-3.374-1.4746
		c-1.7993-1.8144-1.2402-5.1562,0.7251-6.5039c4.6235-2.1699,10.2544,1.4551,11.7002,6.043
		c1.686,4.7383,0.4302,9.9394-0.8862,14.8105c-0.6983,2.4492-1.3423,4.9766-2.3018,7.2578
		c-0.4492,1.1172-1.0024,2.3946-1.2876,3.7559c-4.1836,3.3008-7.5146,7.1016-8.4248,12.8965
		c-1.0024,4.9726,2.083,9.2422,6.5635,10.6054c1.0806,0.4278,2.209,0.7461,3.353,0.9649c1.0425,0.3047,2.061,0.6133,2.9995,0.959
		c6.2925,2.4922,7.2661,9.8105,10.3692,15.3711c0.8896,1.4961,1.9858,2.7734,3.7041,3.6308
		c1.0341,0.6895,2.1308,1.3164,3.2065,1.9668c2.1533,1.3047,4.2363,2.7032,5.5835,4.9004c0.5928,0.8164,1.1235,1.6758,1.5918,2.5781
		c0.9277,1.8067,1.5908,3.7793,1.9492,5.8711c0.9214,5.6797-0.313,15.6416-1.9004,20.8682l1.4019-4.6689
		c4.2666-11.1407,4.4004-23.9102-1.9287-34.4043c-0.4492-0.793-0.9341-1.5743-1.4502-2.3516
		c-0.5166-0.7793-1.0694-1.5488-1.6577-2.3047c-0.5547-0.7031-1.125-1.4082-1.7051-2.1113c-0.5801-0.709-1.1734-1.4102-1.771-2.1211
		c-0.7759-1.0527-1.5859-2.084-2.416-3.0957c-0.7012-0.8594-1.4058-1.711-2.1104-2.5625c-0.7046-0.8496-1.4072-1.6992-2.0927-2.5508
		c-2.0909-2.5742-4.2378-5.3066-5.9385-8.2441c-0.5689-0.9746-1.085-1.9805-1.5332-3.0079c-0.4527-1.0292-0.8335-2.08-1.1284-3.1621
		c-0.2979-1.08-0.5069-2.1933-0.6133-3.33c-0.1992-1.2618-0.3189-2.5352-0.3604-3.8028c-0.04-1.2734,0-2.5449,0.1275-3.8027
		c0.5688-4.9727,2.2153-10.1699,3.438-15.375c0.2929-1.3828,0.5146-2.7734,0.6645-4.1719
		c1.0361-9.7832-1.5381-19.8047-8.7056-27.6206c-7.0141-7.6577-16.7793-11.6055-26.9091-11.0225
		C90.3525,158.4715,76.3477,173.5657,77.8892,189.9349z M161.207,297.5042l8.8003-4.8369c0.3872-0.1797,0.7696-0.3633,1.149-0.5547
		c1.4902-0.7598,2.9277-1.6172,4.3032-2.5625c0.8271,0.1113,1.4502,0.1855,1.4502,0.1855
		c5.3598,1.3399,11.2729,0.9336,16.1596-1.7773c0.8033-0.4883,1.5762-1.0293,2.314-1.6113
		c3.6963-2.9297,6.5093-7.041,7.6426-11.6192c0.228-0.9004,0.376-1.8164,0.4463-2.7422c0.0717-0.9238,0.0571-1.8632-0.0415-2.8066
		c-0.0625-0.6387-0.1421-1.2793-0.2139-1.9199c-0.2197-1.9297-0.4077-3.8633-0.0649-5.8106
		c0.7104-4.0019,4.4223-6.5996,7.937-7.9355c2.8608-1.0918,5.3007-1.3828,7.4365-3.8555c0.3125-0.3613,0.5864-0.7461,0.835-1.1426
		c7.851,0.67,15.9443-1.2109,22.9541-6.1093c0.518-0.3535,1.0185-0.7246,1.5122-1.0977c1.352,0.6543,2.643,1.3789,3.8442,2.1289
		c0.6357,0.4004,1.2607,0.8301,1.8662,1.293c0.6074,0.459,1.2002,0.9551,1.7744,1.4844c9.4004,8.791,11.0987,23.6777,2.8301,33.5664
		c-2.8809,3.4941-6.418,5.9121-10.7437,7.4922c-8.125,2.9394-16.8588,0.6582-22.8676-4.7286
		c4.2363,3.9258,9.8911,6.3145,16.1596,6.127c9.9341-0.1856,17.94-6.252,21.5162-15.293
		c4.1835-10.3711,0.4414-22.2676-8.1456-28.8847c-0.957-0.7344-1.9707-1.4024-3.04-2.002
		c-0.9258-0.5332-1.8691-1.0137-2.8237-1.4687c11.2182-8.7247,15.7261-22.5079,12.8589-36.3711
		c-3.3633-16.8379-18.1841-28.959-34.7754-30.2207c-1.8472-0.1407-3.7134-0.1485-5.5894-0.0137
		c-15.729,0.8926-30.0698,8.0078-42.3105,17.6523c-1.3116,1.0664-2.5786,2.2071-3.8042,3.3985
		c-1.4854,1.1465-2.834,2.4062-4.0498,3.7715c-1.2178,1.3574-2.3033,2.8164-3.2481,4.3496
		c-0.7158,1.4296-1.331,2.8925-1.8647,4.3867c-0.2427,0.6816-0.4624,1.375-0.6695,2.0742
		c-0.3173-10.2285,3.5332-19.6113,13.834-29.9395c0.2198-0.2226,0.4365-0.4492,0.6597-0.6757
		c4.7114-2.7559,7.0288-9.1822,12.937-10.0542c2.7559-0.625,4.4277,3.2905,7.2803,3.3569c1.2163,0.0508,2.1914-0.4819,3.062-1.2495
		c2.6201-2.3037,4.2934-6.7373,8.5439-3.7901c2.9248,2.1846,4.6031,7.3931,9.5962,1.334c3.6787-4.3496,3.2578-9.3955,4.7305-14.1963
		c-6.4165,11.8487-17.9219,6.7481-25.8701,7.105c-1.0713,0.0479-2.0879,0.2202-3.0523,0.5005
		c-2.1738,0.4976-4.1294,2.0977-6.0835,3.7012c-2.6855,2.7461-4.7465,5.9609-7.1372,8.7436
		c1.2754-1.5937,2.4707-3.2407,3.5557-4.9311c0.7734-1.2022,1.4936-2.4297,2.144-3.6826c2.1006-3.6685,3.2334-7.5684,3.7232-11.5865
		c0.1577-1.3383,0.2549-2.6899,0.3598-4.0385c0.1246-1.2242,0.2344-2.4624,0.3316-3.7056c0.0972-1.2446,0.1772-2.4941,0.2392-3.7563
		c0.0396-4.6431,0.1197-9.4708-0.2041-14.233c-0.0703-0.9545-0.1528-1.9077-0.2724-2.8481
		c-1.5347-7.7505-3.6035-16.1309-9.3237-22.1392c-0.4561-0.4497-0.9258-0.8828-1.4107-1.2973
		c-7.7568-6.6685-19.041-9.0337-28.6357-4.6602c-7.333,3.232-12.3648,10.3594-13.4214,18.0274
		c-3.2925,0.7504-6.3799,2.3779-8.8916,4.7382c-5.312,5.043-7.3521,12.8365-5.0156,19.6197
		c0.5322,1.6001,1.2924,3.1128,2.2856,4.4624c4.2729,6.5219,14.4282,7.6631,20.2061,2.3559
		c1.0185-0.9438,1.8774-2.0879,2.5004-3.4458c1.4571-3.6899,0.1036-7.5483-2.7397-10.0952c-1.5283-1.272-3.0488-1.895-4.9868-1.6514
		c-2.7974,0.4751-4.0469,3.2994-4.2251,5.6709c-1.4234-1.1635-2.4688-2.7636-2.8355-4.4497
		c-0.2773-1.7534-0.0923-3.6977,1.1792-5.0141c1.0137-1.0425,2.128-1.9829,3.333-2.7588c0.271,0.8364,0.5957,1.6684,0.9849,2.4814
		c-0.3589-0.8256-0.6694-1.6704-0.9229-2.5214c2.3111-1.482,4.9502-2.3394,7.8145-2.0718c1.3369,0.164,2.6377,0.6167,3.8359,1.4087
		c7.8384,4.8833,10.3233,11.6777,10.1255,19.1289c-0.0464,1.8613-0.2646,3.7646-0.6089,5.6865
		c-0.3408,1.436-0.663,2.9121-1.0024,4.3784c-0.4858,2.166-1.0645,4.3237-1.6943,6.4722
		c-2.8975,8.7944-6.2173,17.8056-8.0674,26.9209c-0.3731,1.8242-0.6841,3.6523-0.9278,5.4902
		c-0.4287,2.2031-0.6596,4.3887-0.7251,6.5567c-0.0273,9.3867,3.106,18.0644,7.1211,26.3554
		c2.8335,7.4239,6.7383,14.5156,10.2925,21.9824c0.5103,1.42,1.065,2.8262,1.6719,4.2071c0.3999,0.8769,0.8145,1.7422,1.2256,2.6015
		c0.2788,0.5645,0.563,1.1407,0.853,1.7246c0.2964,0.752,0.585,1.5098,0.8652,2.2735l0.0318-0.4707
		c0.0513,0.1015,0.0942,0.1953,0.145,0.2969c3.8701,5.3046,5.9356,11.8066,5.8892,18.0351
		c-0.0093,1.5567-0.1563,3.0918-0.4449,4.5801C172.6606,285.5071,164.4873,294.3968,161.207,297.5042z M150.2456,195.2845
		c-0.8257,3.7832-1.1811,7.3613-1.1665,10.789c-0.1338-0.7519-0.2568-1.5097-0.3569-2.2695
		c-0.2583-2.1641-0.3858-4.3516-0.335-6.5508c0.0513-2.1992,0.2788-4.4199,0.7188-6.6562c0.3442-1.8672,0.8242-3.7129,1.4711-5.5332
		c0.6026-2.2891,0.9581-3.5918,0.9581-3.5918c2.582-8.4766,6.9917-16.0918,9.435-24.4766c0.5005-1.6684,0.9116-3.3691,1.2051-5.1113
		c0.4653-2.1929,0.8032-4.3828,0.98-6.5488c0.8833-10.8169-2.2407-20.9537-13.3511-27.2398
		c-1.2305-0.6694-2.5264-1.2397-3.8794-1.6958c-3.0996-0.9814-6.3306-1.0708-9.3955-0.4077
		c0.4463-3.0108,1.5161-5.9863,3.2246-8.7754c5.2705-8.0615,14.4873-11.8677,23.7778-10.7139
		c5.4043,0.7559,10.2989,3.1211,14.2354,6.6143c0.4912,0.437,0.9692,0.8896,1.4253,1.3628
		c5.5176,5.9209,8.6221,14.3442,8.2876,22.6333c-0.0957-1.4312-0.2632-2.854-0.5005-4.2725
		c-1.1729-7.2202-5.2275-14.7729-12.5176-17.5063c-3.5957-1.2036-7.7744-0.7031-10.8188,1.5952
		c-3.1143,2.2729-4.4214,6.4375-3.5938,10.0776c0.7407,3.7886,4.4878,6.4038,8.1695,6.3687
		c3.9047,0.2949,7.0639-3.4058,6.5317-7.145c0.4267,3.768-2.7608,7.2661-6.5298,6.893c-3.5815-0.0556-7.0781-2.6567-7.6807-6.2251
		c-0.7011-3.4633,0.6309-7.352,3.5508-9.3603c2.8643-2.0655,6.7676-2.4385,10.0425-1.2525
		c6.6831,2.6822,10.4014,9.8511,11.3608,16.8018c0.6202,4.2505,0.5464,8.6094-0.1196,12.8647
		c-0.3154,0.7334-0.6504,1.4585-1.0234,2.1709c-0.709,1.3262-1.5073,2.5596-2.3843,3.7232
		c-0.875,1.1636-1.8232,2.2681-2.8369,3.2988c-0.8047,1.1572-1.648,2.2857-2.5244,3.3662
		c-0.8765,1.0806-1.7852,2.1231-2.7144,3.1143c-1.4136,1.6387-2.6841,3.3789-3.3662,5.5591
		c-0.2915,2.4926,0.563,4.9917,0.708,7.4433c0.1626,2.7925-0.2632,5.1841-1.7851,7.5864c-1.6783,2.648-4.5538,4.1792-7.2217,5.6285
		C155.6616,181.4075,151.7964,188.1263,150.2456,195.2845z M219.3955,248.4583c0.6104-0.9766,1.084-2.0332,1.5972-3.0625
		c0.6025-1.2051,0.9468-2.707,1.9731-3.6445c0.7603-0.6953,1.8677-1.252,2.7764-1.7266c5.6069-2.9375,12.2339-1.5059,17.8633,1.1758
		C236.6836,246.6087,227.9512,249.0364,219.3955,248.4583z M175.6602,289.4056c1.3598-0.9453,2.6503-1.9864,3.8554-3.1192
		c2.4785-2.3281,4.5933-5.0332,6.1919-8.0722c0.6216-1.3008,1.1602-2.6446,1.6162-4.0196
		c2.2744-6.873,2.4307-14.5136,0.0303-21.3476c-0.2773-0.7891-0.5962-1.5684-0.9497-2.3301
		c-0.8291-3.9551-2.8355-7.9063-1.0698-11.8457c0.8769-2.4473,4.7212-1.7793,6.1762-3.9512
		c0.6407-0.914,0.7154-1.9355,0.5498-2.9941c-0.4877-3.1817-3.0825-6.6914,1.2911-8.5059c3.1235-1.1679,7.9721,0.1524,5.7597-6.75
		c-1.5444-5.0234-5.6484-7.2304-8.6289-10.7695c5.9864,10.8945-3.6274,17.2344-7.2705,23.5566
		c-0.4927,0.8535-0.8608,1.7266-1.1177,2.6133c-0.6914,1.9356-0.4204,4.2481-0.1464,6.5606
		c0.7729,3.3554,2.1772,6.4765,3.1494,9.625c-0.5674-0.9239-1.1968-1.8164-1.8936-2.668c-0.6182-0.7695-1.2588-1.5254-1.895-2.2891
		c-1.9077-2.2871-3.7803-4.623-4.9741-7.4062c-2.461-5.7383,0.1211-12.1934,3.5014-16.8711
		c2.7588-3.8067,5.6436-6.2403,6.3037-11.211c0.3394-2.541-0.1245-5.0371-0.4208-7.5488c-0.2393-2.0566-1.0616-4.2715-0.5323-6.3418
		c0.3906-1.5312,1.3433-3.1797,2.107-4.5508c0.2153-0.3847,0.4428-0.7578,0.6757-1.125c1.5586-1.1386,3.191-2.1621,4.8721-3.0586
		c10.5669-5.5039,23.9419-6.291,34.6924-0.6992c5.2768,2.7989,9.9053,7.1973,12.312,12.6992
		c2.4048,5.4161,1.9189,12.3985-2.3208,16.8047c-4.0356,4.4024-10.9478,6.3555-16.5273,3.7852
		c-5.2373-2.4082-9.5074-9.5762-5.9737-15.0313c-3.6133,5.42,0.5435,12.7149,5.8682,15.2559
		c5.666,2.7031,12.7632,0.8262,16.998-3.666c4.4659-4.5137,5.0747-11.7754,2.6504-17.4395
		c-2.4272-5.7539-7.1196-10.3183-12.5322-13.2929c-11.0366-5.918-24.7832-5.3223-35.8633,0.2461
		c-0.3393,0.1757-0.6772,0.3574-1.0122,0.5449c6.8994-6.7051,17.8809-8.9063,27.1919-9.1055
		c1.1504-0.0273,2.311-0.0019,3.479,0.0859c1.1685,0.0801,2.3462,0.2168,3.5337,0.4122
		c19.4634,3.3691,34.1831,21.0468,31.8931,40.7109c-0.7588,6.9141-3.2539,12.9902-7.4815,18.6621
		c-1.707,2.2773-3.6592,4.25-5.7802,5.9551c-8.1573-3.8028-17.3233-4.7051-26.2959-3.9219
		c-1.0967,0.1133-2.1949,0.2813-3.2867,0.4941c-1.2192,0.0938-2.4048,0.3008-3.5522,0.6036
		c-1.1509,0.3086-2.2617,0.7109-3.3233,1.2109c-0.9023,0.5195-1.7597,1.0996-2.582,1.7227
		c-0.7715,0.5859-1.5078,1.2168-2.2187,1.8828c-1.5489-0.9785-3.0362-2.0743-4.44-3.2832c1.3755,1.25,2.8369,2.3652,4.3638,3.3535
		c-0.0191,0.0195-0.0386,0.0351-0.0591,0.0547c-5.7793,6.5273-9.958,14.6875-11.3765,23.2304
		c-0.0942,0.6192-0.1801,1.2403-0.2631,1.8594c-0.1128,0.8828-0.2198,1.8067-0.3316,2.7539
		c0.2105,4.2774-0.9878,8.5547-3.2383,11.9278c-0.5644,0.8437-1.1889,1.6308-1.8745,2.3398
		C182.8594,287.7669,179.2861,289.2923,175.6602,289.4056z M214.7705,209.1614l0.3013-0.1914
		c-0.2886-1.1269,0.2534-2.3418,1.2319-2.9687c1.6099-0.9805,3.4458-1.3086,5.2354-0.9571
		c-1.2017-0.2168-2.5259,0.6719-2.7427,1.8731c-0.2964,1.6191,0.4145,3.2676,1.8599,4.0781
		c1.3486,0.7129,2.8593,0.7832,4.2729,0.1836c1.6479-0.7129,2.8433-2.1582,3.1782-3.8906c0.419-2.1524-0.2187-4.4102-1.7929-5.9688
		c-1.7803-1.6894-4.2559-2.2793-6.6832-1.705C215.4429,200.6731,213.6372,205.4114,214.7705,209.1614z M172.8662,120.2981
		c1.9971-2.4126,2.1377-6.4643-0.6196-8.5459c-1.6099-1.1728-3.6167-1.5058-5.4541-0.8125
		c-1.6402,0.6597-2.8081,2.1226-3.1719,3.8409c-0.2866,1.3818,0.1436,2.8144,1.1333,3.8506
		c0.8574,0.8828,1.9893,1.2973,3.2051,1.1889c1.3183-0.1499,2.3559-1.1411,2.6362-2.4258c0.2105-0.9531-0.4858-2.0175-1.4389-2.228
		c1.4277,0.2935,2.6787,1.106,3.5585,2.3267c0.5279,0.7622,0.5518,1.83-0.0127,2.5693L172.8662,120.2981z"/>
	<path fill="#DD0590" d="M120.0322,270.7474c-1.2622,4.5371-3.728,8.6308-7.0317,11.8632
		C116.3457,279.4427,118.8735,275.3938,120.0322,270.7474z M115.6904,272.3548c0.8448,1.7168,0.5659,3.8945-0.8095,5.2324
		l0.2661,0.5293c4.8071-4.3105,6.3198-12.5312,1.3296-17.6055c-2.9263-2.8886-6.917-4.1777-10.876-3.3222
		c-3.5479,0.8457-6.3706,3.4804-7.6299,6.8691c-1.0117,2.7285-0.564,5.7813,1.1411,8.1973c1.481,2.0586,3.6611,3.2539,6.1743,3.4004
		c2.7271,0.0957,5.1436-1.6114,6.1109-4.1485c0.7202-1.8769-0.3824-4.2597-2.2598-4.9824
		C111.9629,267.5579,114.2642,269.595,115.6904,272.3548z M286.5693,207.3704l-0.0703,0.3828
		c4.2237-0.3574,8.2656-4.0683,7.6563-8.7011c-0.3916-2.6719-1.9707-4.9258-4.3877-6.0411
		c-2.1914-0.9609-4.7139-0.6953-6.7129,0.5821c-1.6094,1.0312-2.583,2.8086-2.6426,4.75c-0.0381,1.664,0.6328,3.1504,1.8906,4.2246
		c1.3946,1.1269,3.334,1.1855,4.8438,0.2383c1.1201-0.6973,1.4834-2.3809,0.7842-3.5039c1.0742,1.6621,1.4756,3.6367,1.1328,5.6464
		C288.8271,206.181,287.8174,207.2122,286.5693,207.3704z M239.1938,212.7825c-0.0063-0.0019-0.0112-0.0097-0.0175-0.0117
		c0.0478-0.3418,0.0986-0.6836,0.1401-1.0293 M239.1875,198.3235c-0.2217-1.7109-0.5293-3.4257-0.9023-5.1406
		c3.1655-4.0332,5.5019-8.6933,6.2461-13.8066c0.0795-0.8399,0.1132-1.6875,0.1132-2.5391
		c-0.0063-0.8535-0.0512-1.7051-0.1386-2.5625c-0.0894-0.8516-0.2183-1.7031-0.3955-2.5395
		c-1.375-6.3008-5.4634-12.5865-11.7862-14.7144c-0.7265-0.2407-1.4741-0.4224-2.2344-0.5435
		c-0.7651-0.1211-1.538-0.1787-2.3173-0.1655c-0.6407,0.0283-1.2813,0.1021-1.9126,0.2105
		c-1.3975,0.2387-2.7603,0.6626-4.0435,1.2461c-2.311-3.8443-4.6455-7.73-6.9043-11.7242
		c-5.0918-8.979-6.3047-19.935-2.9565-29.1186c1.664-4.5801,4.5346-8.6094,8.1606-11.5772
		c3.6255-2.977,7.8858-4.9868,12.2515-5.9863c4.3652-0.9785,8.8213-1.189,13.0034-0.4512
		c4.1787,0.7349,8.0713,2.4165,11.2187,4.8599c3.1133,2.4766,5.6788,5.4663,7.4317,8.7261
		c1.7627,3.2573,2.7578,6.751,2.9795,10.1347c0.247,3.3882-0.3926,6.6543-1.6709,9.4288c-0.6436,1.3837-1.4229,2.665-2.3438,3.7661
		c-0.9316,1.0981-2.0088,2.0053-3.1562,2.7114c-2.2969,1.4199-4.8291,2.0381-7.1338,2.019
		c-2.3047-0.0302-4.0469-0.4165-5.6494-1.4267c-1.5987-1.0459-2.9605-2.709-3.5244-4.0464
		c-0.1372-0.3267-0.2471-0.6484-0.3379-0.9609c0.9321,1.8168,1.7275,3.8125,3.4843,4.8134l-0.6425-1.2485
		c-0.5733-1.6982-0.5928-2.3462-0.2295-3.8076c0.6386-2.3623,2.2148-4.0366,4.2187-5.3037
		c-1.3242,0.8672-1.7773,2.8862-0.9082,4.2138c1.1699,1.7915,3.3135,2.7046,5.3975,2.1773
		c1.9131-0.5322,3.3935-1.8184,4.1904-3.6499c0.9131-2.145,0.7471-4.5694-0.4873-6.5025c-1.5332-2.4018-4.1494-3.9624-7.0244-4.0195
		c-3.1895,0-6.0498,1.6572-7.8203,4.3716c-1.7788,2.81-1.2139,5.7158-0.249,8.8183c0.0991,0.3604,0.3569,0.9463,0.5131,1.3272
		c0.5581,1.3447,1.4585,2.1728,2.94,3.564c1.3935,1.3086,3.8056,1.7314,6.1289,1.7744c2.3203,0.0283,4.8769-0.5835,7.2012-2.0069
		c1.1601-0.7075,2.2519-1.6191,3.2011-2.7236c0.9356-1.1157,1.7246-2.3984,2.3819-3.7935c1.2988-2.7954,1.955-6.0913,1.7197-9.5102
		c-0.2109-3.4121-1.2022-6.9439-2.9717-10.2349c-1.7656-3.3008-4.331-6.31-7.4726-8.8281
		c-3.1797-2.4834-7.1104-4.1919-11.334-4.9473c-4.2281-0.7553-8.7227-0.5532-13.1343,0.4302
		c-4.4131,0.9981-8.729,3.0254-12.4028,6.0342c-3.6817,2.9995-6.5996,7.0879-8.291,11.7256
		c-3.3995,9.3061-2.1739,20.3701,2.9697,29.4487c2.2549,3.9858,4.582,7.8574,6.8882,11.689
		c-1.4742,0.7168-2.834,1.6587-3.9927,2.8301c-0.5161,0.5327-0.9688,1.0917-1.3623,1.6801
		c-1.1826,1.7593-1.8238,3.7613-2.0357,5.9595c-0.4492,4.7476,1.3072,9.4897,5.0479,12.2886
		c0.478,0.3496,0.9863,0.6679,1.5122,0.9414c1.2974,0.707,2.7383,1.0859,4.2187,1.2109c0.7271,0.0371,1.4571-0.0117,2.1724-0.166
		c0.7158-0.1562,1.4155-0.4141,2.0879-0.7871c0.6426-0.3672,1.2339-0.8066,1.7646-1.3027c0.4253-0.3868,0.8111-0.8106,1.1475-1.2657
		c0.29-0.3964,0.5288-0.8164,0.7456-1.2461c1.8604,4.0196,3.3633,8.1114,4.4644,12.2247c-0.3111,0.5976-0.6377,1.1875-0.9976,1.7597
		c-0.418,0.668-0.8657,1.3184-1.334,1.9492c-2.3174,3.4746-5.4077,6.2344-8.9428,8.2266c-0.7095,0.3984-1.4346,0.7695-2.1739,1.1074
		c-2.1821,1-4.4658,1.75-6.852,2.1758c-2.1929,0.4238-4.3906,0.7793-6.5821,1.1504c0.0572-6.1133-1.1093-12.7266-4.1313-18.9297
		c-1.3804-2.793-3.1318-5.459-5.1572-7.9824c0.2788-1.0957,0.5097-2.2246,0.6216-3.4766c0.3393-3.7656,0.3105-7.5747-0.295-11.3135
		c-0.1499-0.9306-0.3364-1.852-0.563-2.7573c-0.2295-0.9306-0.5146-1.8374-0.8491-2.7285
		c-0.3364-0.8862-0.7187-1.7563-1.1445-2.6074c-2.939-5.3487-6.9248-10.1143-11.4468-14.2036
		c-0.5195-0.4595-1.042-0.9117-1.5698-1.3614c-0.5259-0.4477-1.0552-0.8891-1.5889-1.3325c-1.1382-0.9385-2.292-1.8613-3.4536-2.77
		c-2.3237-1.8218-4.6826-3.5952-7.0527-5.3452c-0.5274-0.4146-1.0454-0.8418-1.5523-1.291
		c-0.666-0.5933-1.3213-1.1988-1.9717-1.8106c-1.2988-1.2226-2.5786-2.4673-3.8901-3.7041
		c-0.5088-0.4912-1.0156-0.9819-1.5225-1.4726c-0.685-0.6709-1.3608-1.3628-2.038-2.0498c0.2197-0.252,0.4414-0.5005,0.6709-0.7393
		c2.4145-2.4736,5.2929-4.3686,8.3051-5.6484c3.0249-1.2495,6.2525-1.7881,9.3155-1.5015c6.1333,0.647,11.455,3.9336,14.3955,8.2686
		c3.0088,4.2807,3.5049,9.6743,1.5727,13.3813c-0.9658,1.8457-2.4175,3.2451-3.9668,4.1152
		c-1.5556,0.8736-3.2036,1.253-4.665,1.2129c-1.4727-0.083-2.6919-0.709-3.5635-1.4101c-0.2505-0.2012-0.4687-0.4116-0.6714-0.6236
		c1.2305,0.8848,2.7159,1.4268,4.211,1.4986l-0.0747-0.3379c-1.1221-0.1006-2.0577-0.9903-2.3111-2.0816
		c-0.3745-1.7866-0.0815-3.5669,0.8238-5.0859c-0.5894,1.0229-0.2071,2.5195,0.8164,3.1045
		c1.3833,0.7969,3.1142,0.6792,4.3237-0.376c1.0903-1.001,1.6387-2.3525,1.5478-3.8393c-0.1167-1.7325-1.0473-3.2867-2.5185-4.1553
		c-1.8296-1.0772-4.0928-1.2271-6.023-0.2964c-2.1196,1.0776-3.4585,3.146-3.7197,5.5464c-0.2329,2.477,1.0039,4.603,2.8399,5.9595
		c0.2187,0.2407,0.4575,0.4795,0.7363,0.7089c0.875,0.7095,2.0962,1.3453,3.5801,1.4346c1.4726,0.0508,3.1298-0.3252,4.7031-1.2002
		c1.5649-0.8686,3.0361-2.271,4.0146-4.1328c1.9683-3.7388,1.4888-9.1738-1.5332-13.5088
		c-2.9516-4.3828-8.3066-7.7138-14.4985-8.3867c-3.1001-0.2964-6.3643,0.2393-9.4243,1.4951
		c-3.0474,1.2861-5.9478,3.1875-8.4009,5.6851c-0.2261,0.2373-0.4448,0.4843-0.6645,0.7314
		c-0.2564-0.2627-0.521-0.5132-0.7779-0.7807c-0.5737-0.6123-1.1347-1.2369-1.6797-1.8711
		c-1.0952-1.2754-2.1167-2.6011-3.0346-4.0132c-0.5708-0.9502-1.1045-1.9253-1.586-2.9151c-0.4843-0.9931-0.9258-2.0048-1.31-3.0332
		c-0.3492-0.915-0.6504-1.8422-0.9082-2.7841c-0.7383-2.4707-1.127-5.0669-1.1524-7.6631
		c-0.0063-0.6485,0.0127-1.2989,0.0523-1.9458c0.4463-5.585,2.7417-11.1026,6.5395-15.2403c0.5532-0.58,1.1426-1.1313,1.7612-1.6416
		c0.7457-0.6372,1.5347-1.227,2.3619-1.7656c0.8242-0.5356,1.6894-1.0185,2.5869-1.4424
		c5.0903-2.3969,12.0635-2.1596,16.6548,1.1075c4.372,3.1079,6.8056,8.5732,5.8383,13.895c-0.4672,2.5722-1.726,4.958-3.6098,6.7705
		c-1.6929,1.6255-5.7237,4.5293-7.8145,2.0381c-1.3916-1.6529-0.2964-4.6026,1.1426-5.2515
		c-5.0093,1.2529-7.4556-6.3496-3.8013-9.2168c-0.5927,0.4668-1.1743,0.9863-1.729,1.5508
		c-0.5498,0.5625-1.0693,1.1699-1.5444,1.8071c-1.7788,2.3716-3.0728,5.4443-2.2251,8.4058c0.1992,0.7011,0.5181,1.3833,0.9741,2.04
		c0.4556,0.6582,1.0469,1.2847,1.7959,1.8726c4.249,3.3423,10.6514,1.6435,14.5738-1.5332c5.062-4.0977,7.416-11.2119,4.268-16.937
		c-1.6382-2.9805-4.0019-5.5464-6.9741-7.2295c-6.6099-3.7456-14.7905-2.7383-21.2246,1.0805
		c-0.7158,0.4239-1.4072,0.8848-2.0659,1.3789c-0.6802,0.5498-1.3355,1.1377-1.9522,1.7593
		c-4.3989,4.6553-7.3042,11.0054-7.1704,17.4634c0.0112,0.5957,0.043,1.1919,0.0859,1.7817
		c0.1309,1.7803,0.4063,3.5381,0.7906,5.2339c0.1802,0.8369,0.3886,1.6641,0.6264,2.4834c0.4351,1.4917,0.9688,2.9546,1.5889,4.3794
		c0.3091,0.7144,0.6426,1.4204,0.9946,2.1138c1.1729,2.228,2.6377,4.2344,4.2666,6.1074c0.545,0.6279,1.1045,1.2363,1.6817,1.8359
		c0.3681,0.376,0.7773,0.752,1.1679,1.1285c-0.1879,0.2373-0.3681,0.478-0.5468,0.7236c-3.0567-2.6108-5.897-5.4478-8.3623-8.7197
		c-0.5835-0.773-1.1411-1.5635-1.667-2.3736c-1.0537-1.6206-1.9844-3.3213-2.7334-5.1284
		c-0.2393-0.6186-0.4546-1.2466-0.6441-1.8794c-0.7666-2.5386-1.1552-5.1894-1.1093-7.8462
		c-0.0079-0.5766,0.0127-1.1552,0.0512-1.7275c0.0332-0.4829,0.0845-0.9644,0.1514-1.4409c0.3315-2.3907,1.0552-4.711,1.8628-6.9615
		c0.1929-0.5483,0.3921-1.0932,0.5981-1.6352c0.2227-0.5801,0.4556-1.1572,0.7027-1.7276c0.7348-1.7133,1.5683-3.3886,2.4848-5.019
		c0.3042-0.5976,0.6231-1.1938,0.9532-1.7803c0.3295-0.5883,0.6738-1.1714,1.0327-1.7485
		c2.1577-3.4473,4.1694-6.8198,6.3081-10.2026c0.2597-0.4034,0.5244-0.8106,0.7905-1.2217c0.397-0.6421,0.773-1.2774,1.1143-1.9043
		c0.2802-0.523,0.5478-1.0503,0.8061-1.5855c0.7573-1.6025,1.3819-3.2617,1.7598-5.0175c0.1098-0.5479,0.2007-1.0953,0.2773-1.6451
		c0.1543-1.1005,0.2388-2.2075,0.25-3.3144c0.0098-0.6104-0.0063-1.2183-0.0429-1.8306c-0.0606-1.2383-0.2105-2.4995-0.4605-3.7466
		c-0.0864-0.417-0.1787-0.8315-0.2837-1.2426c-1.146-4.4659-4.3638-8.2749-8.2832-10.6319
		c-0.5449-0.3076-1.1025-0.5859-1.6782-0.8354c-0.5483-0.2119-1.1138-0.395-1.6846-0.5484
		c-4.0532-1.0932-8.5122-0.7846-12.0952,1.2608c-0.3223,0.185-0.6426,0.3872-0.9546,0.6015
		c-0.3174,0.2139-0.6264,0.4424-0.9214,0.6871c-2.3398,1.9716-3.9907,4.812-4.2934,7.8974
		c-0.0464,0.375-0.0703,0.7505-0.0782,1.1245c-0.0351,2.6192,0.9068,5.1675,3.1636,6.9263c0.314,0.2837,0.6455,0.5518,0.9898,0.7993
		c1.372,0.9961,2.9643,1.7041,4.5981,2.0386c0.5034,0.0923,1.0103,0.1435,1.522,0.1479c1.0215,0.0074,2.0449-0.1757,3.041-0.5903
		c1.103-0.4644,2.0176-1.228,2.6885-2.1748c0.1675-0.2383,0.3203-0.4868,0.459-0.7451c2.1504-3.2822-0.1416-7.3115-3.5015-8.5513
		c1.8057,0.8486,3.0615,2.6065,3.084,4.6807c0.0112,2.768-1.8042,5.4868-4.5772,5.9189c-0.3413,0.0611-0.6821,0.0977-1.0185,0.1084
		c-0.3413,0.0117-0.6743-0.0049-1.0059-0.0473c-0.4809-0.0498-0.9433-0.1714-1.3784-0.356
		c-0.2183-0.0933-0.4272-0.2007-0.6265-0.3242c-0.3027-0.1582-0.5673-0.3364-0.7983-0.5308
		c-1.8965-1.5317-1.0889-4.0849-0.6362-6.2168c0.3794-1.8608-1.898-2.6513-2.5879-4.1836c-0.0449-0.1689-0.1499-0.2851-0.1675-0.479
		c-0.1006-0.3994-0.1274-0.7866-0.0923-1.1665c0.1782-1.8887,1.9107-3.4888,3.5142-4.3657c0.2978-0.1709,0.604-0.3311,0.9082-0.4805
		c0.3652-0.1904,0.7285-0.3672,1.0932-0.5298c2.2076-0.9785,4.5249-1.4497,7.064-1.0214c0.7026,0.1196,1.3882,0.2841,2.0591,0.4956
		c0.6709,0.2119,1.3262,0.4677,1.9619,0.7602c0.5244,0.2334,1.0347,0.4995,1.5239,0.791c3.4043,2.1158,6.0449,5.4678,7.4238,9.2227
		c0.15,0.4385,0.2901,0.8804,0.4097,1.3262c0.4815,1.7915,0.7124,3.6504,0.6787,5.4912c0.002,0.6982-0.0302,1.3955-0.0908,2.0879
		c-0.0669,0.7817-0.1768,1.562-0.3188,2.3364c-0.1416,0.7739-0.3184,1.5454-0.5308,2.3096
		c-0.3618,1.1484-0.8096,2.2553-1.3145,3.3408c-0.2534,0.5415-0.52,1.0786-0.7954,1.6094c-0.4814,0.8984-0.9785,1.7739-1.4809,2.645
		c-2.4668,4.4165-5.6787,8.5283-8.7276,12.5639c-1.5791,2.0909-2.9692,4.2456-4.4848,6.4546
		c-1.7915,2.6206-3.8521,5.1529-5.4282,7.9116c-1.7901,3.1353-1.2115,4.8165,0.6914,7.668c0.8383,1.251,1.4028,2.5132,1.6801,3.9907
		c0.2598,1.3628-0.1884,2.4561-0.209,3.8111c-0.0224,1.2939,0.3541,2.811,0.792,4.0288c0.4576,1.2768,1.3931,2.2934,2.4434,3.1206
		c1.0884,0.8638,2.311,1.5303,3.5273,2.2041c2.0318,0.9868,3.7769,2.335,5.5332,3.7949c1.586,1.2944,3.1685,2.542,4.7544,3.7617
		c-0.7856,1.1328-1.4741,2.3477-2.04,3.6304c-0.0205-0.0093-0.0381-0.019-0.0571-0.0303c-1.0171-0.5068-2.0498-0.9834-3.0987-1.4262
		c-1.0629-0.4131-2.1499-0.7686-3.2529-1.0616c-8.5283-2.2822-18.1167-1.0073-25.2505,4.2491
		c1.417-7.0733,0.3921-14.5035-3.103-20.4454c-2.0815-3.5459-5.084-6.4565-8.5508-8.3608
		c-3.4648-1.9189-7.3042-2.9297-11.0688-3.0854c-3.7647-0.1436-7.4781,0.3662-10.8267,1.6191
		c-3.3467,1.2524-6.3159,3.2451-8.5425,5.7549c-2.2011,2.5342-3.8506,5.3857-4.8008,8.3564
		c-0.9545,2.9595-1.2382,6.0025-0.8969,8.8296c0.3203,2.8369,1.3515,5.4414,2.8349,7.5337
		c1.4683,2.1055,3.4156,3.7202,5.5533,4.5029c4.2856,1.6495,8.5937,0.4175,10.9174-1.7055
		c1.1568-1.1128,1.7369-2.4737,1.9952-3.6626c0.0717-0.335,0.1132-0.6553,0.1372-0.9658c0.6997-2.4419,0.354-5.1543-1.524-7.1915
		c-1.8598-1.9555-4.4526-2.8862-7.0669-2.4062c-2.3476,0.478-4.2534,2.1465-5.1523,4.3477
		c-0.7207,1.769-0.4927,3.7788,0.5801,5.3999c0.9243,1.3818,2.3315,2.2119,3.9765,2.3637c1.7896,0.1192,3.4092-0.9516,4.0992-2.5947
		c0.5117-1.2163-0.1626-2.8037-1.3804-3.3154c1.8359,0.7363,3.2993,2.1216,4.1772,3.9624c0.5181,1.1426,0.2906,2.5659-0.6391,3.4135
		l0.1626,0.3555c1.2846-1.0806,2.2363-2.5771,2.7304-4.2012c-0.0288,0.2676-0.0703,0.542-0.1323,0.8291
		c-0.2612,1.1792-0.8462,2.5308-2.0019,3.627c-2.3125,2.0977-6.6045,3.2993-10.8443,1.645
		c-2.1133-0.7871-4.0273-2.3906-5.4775-4.4848c-1.4634-2.0782-2.4736-4.6602-2.7798-7.4717
		c-0.3301-2.8081-0.0366-5.8203,0.9199-8.753c0.9483-2.9326,2.604-5.7666,4.7827-8.2641c2.2124-2.4751,5.1495-4.4356,8.4615-5.666
		c3.3183-1.23,7.0014-1.7276,10.726-1.5762c3.7281,0.1641,7.5196,1.1714,10.9351,3.0684c3.4189,1.8867,6.3721,4.7587,8.4233,8.2622
		c3.5015,5.9668,4.4864,13.4736,2.9742,20.5756c-0.1231,0.0958-0.2505,0.1817-0.3716,0.2774
		c-1.3531,1.0757-2.6392,2.2856-3.8408,3.5796c-7.2266,7.7905-11.2378,18.6284-6.3687,26.5781
		c-1.9717,6.8057-2.8916,13.6997-2.4863,20.27c0.0522,1.0196,0.1479,2.0254,0.2724,3.0215
		c-0.4179-0.0058-0.8335-0.041-1.2514-0.0391c-11.6919-0.3222-24.5474,2.4649-32.3521,11.9122
		c-0.9692,1.1601-1.8428,2.4179-2.6074,3.7812c-0.5244,0.9063-0.9883,1.8359-1.3945,2.7832
		c-1.626,3.7871-2.3194,7.8672-2.1617,11.9746c0.0669,1.1875,0.2393,2.3711,0.5293,3.5371c0.2886,1.166,0.6983,2.3203,1.2417,3.4414
		c0.7442,1.5196,1.648,2.92,2.668,4.2149c-3.6562,1.541-7.2436,3.4629-10.7021,5.6992
		c-6.8853,4.4141-13.6592,9.4883-20.8711,14.2734c-7.167,4.7559-16.1978,6.4043-24.0279,4.1563
		c-3.9018-1.1152-7.4189-3.2637-10.0952-6.1035c-2.6855-2.8379-4.6045-6.2617-5.6914-9.8301
		c-1.0679-3.5723-1.5029-7.2617-1.1333-10.7813c0.3667-3.5156,1.5332-6.8476,3.3838-9.6035c1.876-2.7324,4.209-5.041,6.8169-6.6875
		c2.6011-1.6543,5.4473-2.6875,8.2476-3.0683c2.7973-0.4004,5.5512-0.0645,7.9292,0.8398c2.3891,0.8789,4.4179,2.3359,5.7041,4.1895
		c2.6601,3.6933,2.5566,8.1484,1.103,10.9121c-0.773,1.3906-1.938,2.2949-3.0186,2.8418c-0.2646,0.1308-0.5229,0.2422-0.7793,0.3379
		c1.9722-0.7403,2.9097-1.6309,3.9151-3.4141l0.3637-0.7715l0.2432-0.9394c-0.9092,1.1972-3.3115,2.9902-5.7256,2.7285
		c-2.0278-0.2198-2.6343-1.3653-3.8056-2.959c0.7998,1.0508,2.5053,1.3105,3.5571,0.5098c1.4184-1.0743,2.0513-2.9102,1.4931-4.6133
		c-0.5542-1.5586-1.7084-2.7129-3.2763-3.2676c-1.8364-0.6328-3.8443-0.3535-5.3779,0.7852
		c-1.9058,1.416-3.0489,3.6777-2.9292,6.0683c0.1865,2.6524,1.6806,5.0283,4.0898,6.2481c3.1904,1.6152,7.9385-0.5313,8.2476-0.6856
		c1.0839-0.5449,2.2265-1.2002,3.0493-2.8437c1.4087-2.8135,1.6015-7.2578-1.0635-11c-1.2925-1.8731-3.3389-3.3594-5.7422-4.2539
		c-2.3955-0.92-5.1753-1.2735-8.001-0.877c-2.8257,0.3731-5.7007,1.4043-8.334,3.0664c-2.6376,1.6602-4.9917,3.9649-6.8979,6.7246
		c-1.8789,2.7871-3.0664,6.1563-3.4487,9.7071c-0.3809,3.5605,0.0507,7.2832,1.1235,10.8925
		c1.0918,3.6075,3.0234,7.0782,5.7407,9.9532c2.7066,2.8828,6.2749,5.0683,10.2276,6.2031
		c7.934,2.2812,17.0551,0.6191,24.2973-4.1914c7.2261-4.7871,13.9937-9.8692,20.8594-14.2774
		c3.4717-2.2519,7.0688-4.1816,10.7344-5.7246c2.7842,3.4551,6.4389,6.1094,10.4682,7.9531
		c-1.7822-2.0664-3.3872-4.2832-4.667-6.6816c-0.4267-0.7969-0.8159-1.6133-1.165-2.4531
		c-0.0635-0.1563-0.1177-0.3184-0.1782-0.4785c2.1006-0.6914,4.2124-1.2637,6.3286-1.6758
		c7.3491-1.5059,14.6357-0.916,21.0269,0.8945c6.4135,1.8067,12.019,4.7305,16.5102,8.166
		c4.4692,3.5098,7.5293,7.7637,9.6489,11.7188c2.0147,3.8047,3.1494,7.3789,3.8506,10.3847
		c-2.2378-4.7304-5.1753-9.1601-8.6577-13.041c-0.8223-0.7773-1.6894-1.5078-2.5962-2.1836
		c-0.9067-0.6816-1.8535-1.3066-2.8432-1.8711c-1.1714-0.541-2.3921-0.9785-3.6578-1.3066
		c-1.2622-0.3281-2.5659-0.5449-3.8999-0.6367c-1.2036-0.2246-2.4082-0.4043-3.6118-0.5195
		c-11.1006-0.8926-22.4546,0.5507-32.1655,6.248c-1.1685,0.666-2.2793,1.4043-3.3233,2.2207
		c-9.373,7.3184-13.394,20.4004-8.7275,31.75c3.9873,9.8984,12.8154,16.4961,23.7173,16.6289
		c6.4883,0.1504,12.3516-2.2207,16.8765-6.1269c-6.5186,5.4414-15.6734,7.6816-24.2481,4.6406
		c-4.7622-1.6992-8.6523-4.3281-11.8403-8.1406c-9.1465-10.7969-7.3872-27.1426,2.8594-36.8555
		c0.6293-0.584,1.2768-1.1348,1.9414-1.6445c0.663-0.5137,1.3432-0.9903,2.0351-1.4317c6.8311-4.332,16.2964-7.8926,24.0391-3.9004
		c0.9995,0.5117,2.2217,1.1153,3.06,1.8711c1.1333,1.0235,1.5205,2.668,2.19,3.9863c0.8193,1.6094,1.5317,3.2774,2.7397,4.6602
		c2.3623,2.6973,5.041,3,8.1924,4.1738c3.8633,1.4434,7.9561,4.2676,8.7627,8.6543c0.3936,2.1289,0.1992,4.2578-0.0288,6.375
		c-0.0752,0.7071-0.1563,1.4082-0.2217,2.1114c-0.1035,1.0351-0.1069,2.0605-0.0254,3.0781
		c0.0845,1.0156,0.2564,2.0195,0.5083,3.0058c1.2783,5.0176,4.3941,9.5059,8.4712,12.6934c0.8159,0.6367,1.6685,1.2227,2.5532,1.752
		c3.7549,2.0507,5.585,3.5937,8.96,6.3437c3.999,4.1914,7.875,6.625,12.3188,10.7383c1.1607,1.0742,2.5064,2.9629,3.4312,4.1367
		c0.5435,0.7188,8.9546,11.127,10.5771,12.4512l0.2979,0.289c-1.2461-1.6797-5.4561-7.5371-6.6323-9.2675
		c-0.5864-0.8672-1.1651-1.7364-1.7324-2.6172c-0.7364-1.2071-1.4502-2.4356-2.147-3.6758
		c-3.1621-5.2012-10.8902-29.7949-11.249-36.3574c-0.0909-1.4121-0.1543-2.8223-0.1895-4.2325
		c-0.0732-2.8242-0.0493-5.6445,0.0508-8.4511c0.0322-1.3086,0.0625-2.6211,0.0928-3.9336
		c0.1416-6.5567,0.2485-13.1133,0.2324-19.6914c0.021-1.2344,0.0288-2.4688,0.0337-3.7051
		c-0.1099-3.041-0.1133-6.1211-0.2661-9.1856c0.2534-0.0039,0.5117-0.0078,0.7568-0.0156c4.8882-0.1543,7.9785-0.9824,9.1611-1.3301
		c-0.2085,1.1309-0.416,2.2618-0.6279,3.3907c-0.1802,0.9707-0.3618,1.9355-0.542,2.9062
		c-1.4297,9.1211-2.6533,18.3555-2.6167,27.6055c0.022,1.0469,0.0508,2.0879,0.0894,3.1308
		c0.0346,2.2286,0.1543,4.4493,0.3535,6.6622c0.0991,1.1054,0.2168,2.2089,0.3618,3.3046c0.3682,2.0821,0.7505,4.17,1.1621,6.2559
		c0.2056,1.041,0.416,2.084,0.6499,3.1172c0.2427,0.9648,0.4927,1.9336,0.7446,2.9004c2.5279,8.8945,5.3472,17.9199,10.5796,25.6621
		c0.4097,0.6055,0.8257,1.2109,1.2544,1.8105c0.2661,0.3731,0.5542,0.7403,0.8301,1.1133c1.5029,2.9063,3.272,5.6738,5.3394,8.2305
		c0.8735,1.0683,1.8027,2.0918,2.7812,3.0605c0.9751,0.9707,2.0015,1.8926,3.0776,2.7559l0.7554,0.4121
		c-1.0566-1.0527-2.1294-2.1738-3.1699-3.3574c-3.2275-3.7422-6.2144-7.8828-7.29-12.832c-0.8707-4.004-0.668-8.0274,0.2451-11.9063
		c0.2265-0.9687,0.5039-1.9297,0.8164-2.8789c1.2954-3.9043,3.1889-7.6113,5.5224-11.0313c0.875-1.2089,1.8868-2.3105,3.1109-3.082
		c0.3027-0.1933,0.6152-0.3633,0.9292-0.5137c0.3188-0.1523,0.6391-0.291,0.9594-0.4218c0.3443-0.1524,0.7012-0.2813,1.063-0.3907
		c1.1734-0.3867,2.3731-0.3828,3.564-0.4492c-1.4985-0.3008-2.8179-1.0918-4.0435-1.9355
		c-0.3652-0.2871-0.7158-0.6094-1.0537-0.9531c-3.9209-3.7637-6.3193-9.4727-5.5351-14.7715
		c0.5117,0.0488,1.2671,0.1015,2.2583,0.1367c2.0019,0.0683,4.9761,0.0234,8.7466-0.5606
		c2.9853-0.4453,6.5014-1.1953,10.3056-2.5722c-0.3633,0.8027-0.6787,1.5976-0.8623,2.3691
		c-1.0757,4.5449-0.8047,9.1133,1.1621,13.3496c0.918,1.9785,2.1802,3.7285,3.8218,5.1973
		c3.1875,2.8535,6.6733,3.584,10.6304,4.5058c0.9199,0.2149,1.8506,0.379,2.7876,0.502c0.9311,0.0957,1.8667,0.1758,2.8051,0.2344
		c12.5562,1.6347,26.5254-6.2617,28.7461-19.2656c0.2305-1.1192,0.3858-2.2579,0.4668-3.4004
		c0.3184-4.5782-0.5546-9.2774-2.6015-13.3985c-0.4414-1.0019-0.9287-1.9804-1.461-2.9297
		c-0.5293-0.955-1.1045-1.8789-1.7138-2.7695c-3.9414-5.4883-9.4556-9.7227-15.627-12.4648c0.3843-0.918,0.749-1.8516,1.0952-2.8047
		c0.1177-0.3242,0.2183-0.6621,0.3316-0.9922c4.2344,1.709,8.4931,3.9824,12.7353,6.6426c2.3545,1.4707,4.6748,3.08,7.0694,4.6445
		c2.29,1.6465,4.7773,3.2402,7.3437,4.6191c5.1514,2.7754,10.7569,4.9356,16.6348,6.1836
		c5.8428,1.3106,12.0547,1.5821,18.0351,0.3203c5.9659-1.2285,11.6602-4.1836,15.8614-8.6308
		c2.1006-2.1875,3.9541-4.6055,5.5351-7.1758c1.5889-2.541,2.9229-5.2871,3.8379-8.1367c0.9248-2.8496,1.4824-5.7949,1.6865-8.7422
		c0.2481-2.9746-0.08-5.9004-0.5947-8.7598c-1.1045-5.7031-3.3965-11.08-6.7275-15.5605
		c-3.3662-4.4512-7.7637-7.8985-12.5127-10.1289c-4.7461-2.2364-9.9043-3.2383-14.7559-2.8008
		c-4.8349,0.4121-9.374,2.0684-12.8603,4.7617c-1.7383,1.3438-3.211,2.9258-4.3399,4.6641c-1.1201,1.75-1.7578,3.6992-2.0049,5.6074
		c-0.4843,3.8437,0.584,7.4551,2.2696,10.1797c1.6914,2.7539,3.999,4.6836,6.2685,5.7851c2.2735,1.1153,4.4776,1.4649,6.2276,1.3497
		c1.7607-0.1094,3.0498-0.6485,3.8466-1.0821c0.8018-0.4414,1.167-0.7578,1.17-0.748c-0.003-0.0098-0.3711,0.3027-1.1778,0.7343
		c-0.7978,0.4258-2.0879,0.9512-3.8437,1.043c-1.7393,0.1035-3.9287-0.2656-6.1758-1.3945
		c-2.2402-1.1133-4.5098-3.041-6.1592-5.7832c-1.6426-2.709-2.6631-6.2793-2.1572-10.0488
		c0.2578-1.8731,0.9004-3.7735,2.0078-5.4688c1.1143-1.6914,2.5791-3.2402,4.2949-4.543c3.4414-2.6191,7.9121-4.2129,12.6739-4.582
		c4.7656-0.3965,9.8164,0.625,14.4658,2.8516c4.6484,2.2265,8.9443,5.6425,12.208,10.0195
		c3.2256,4.3984,5.4492,9.6992,6.4931,15.291c0.4922,2.793,0.794,5.6953,0.5391,8.5527c-0.2197,2.877-0.7783,5.754-1.6943,8.5254
		c-0.9131,2.7774-2.2041,5.4141-3.7901,7.918c-1.5556,2.5059-3.3769,4.8594-5.4443,6.9883
		c-4.0791,4.2812-9.5723,7.1016-15.3662,8.2754c-5.8106,1.1972-11.8516,0.9238-17.5889-0.375
		c-5.75-1.2363-11.2519-3.3711-16.3125-6.1055c-2.539-1.375-4.9101-2.8926-7.2529-4.5781
		c-2.3818-1.5586-4.7051-3.1719-7.0879-4.6602c-4.3193-2.705-8.6211-5.0019-12.9912-6.7519
		c0.9277-2.9004,1.6435-5.9531,2.0942-9.1192 M229.0605,176.929c-3.0986,1.2383-6.4853,0.1426-8.7246-2.3437
		c-2.08-2.2749-2.813-5.2955-2.1245-8.1685c0.6358-2.6333,2.3701-4.7817,4.6011-6.2065c2.4624,4.0957,4.874,8.1508,7.0928,12.2148
		c0.5288,0.957,1.0307,1.918,1.5205,2.8848C230.7642,175.9974,229.9624,176.556,229.0605,176.929z M232.9653,177.638
		c0.899-2.0703,1.0074-4.4473,0.3824-6.6089c-0.0879,1.4624-0.7012,2.853-1.6578,3.9683c-0.4682-0.9239-0.9467-1.8418-1.4487-2.7554
		c-2.2202-4.0791-4.6313-8.1397-7.0923-12.2422c0.4541-0.2681,0.9195-0.5195,1.4058-0.727c0.7666-0.3267,1.5649-0.5718,2.3794-0.733
		c1.7104-0.3681,3.4302-0.2216,5.0288,0.314c0.5322,0.1782,1.0469,0.4014,1.5508,0.6646c4.1084,2.142,6.6284,6.8984,6.209,11.5195
		c-0.0621,0.6572-0.1831,1.3032-0.3746,1.9282c-0.1879,0.6289-0.4428,1.2383-0.7695,1.8184
		c-0.4287,0.6679-0.9819,1.2578-1.6782,1.7324c0.5976,0.6699,1.1138,1.3437,1.522,2.0762c0.4077,0.7324,0.7046,1.5273,0.8589,2.4316
		c0.3027,3.0899-0.4683,6.0586-1.8155,8.8027C236.3486,185.7239,234.8281,181.6438,232.9653,177.638z M161.9316,122.5008
		c0.2945,0.2822,0.5655,0.5644,0.8716,0.8447c0.5147,0.4526,1.0279,0.9038,1.5298,1.3516c0.5054,0.4497,1.0029,0.8925,1.5,1.334
		c1.1094,1.0058,2.2188,2.0131,3.3359,3.0107c0.2647,0.2393,0.5323,0.4717,0.7984,0.7075
		c-2.9595-2.0942-5.8462-4.2314-8.5669-6.5405C161.5742,122.9695,161.7515,122.7337,161.9316,122.5008z M161.0898,123.6438
		c3.5577,2.7271,7.1402,5.293,10.857,7.8238c0.1289,0.1084,0.2549,0.2246,0.3872,0.3315c0.499,0.4112,1.0044,0.8159,1.5176,1.2114
		c1.4946,1.1441,2.9848,2.2872,4.4638,3.4458c1.479,1.1568,2.9424,2.3301,4.375,3.5381c1.312,1.125,2.6172,2.2632,3.8892,3.4331
		c0.4238,0.3887,0.8476,0.7823,1.2622,1.1792c3.3628,3.1656,6.1997,6.8536,8.71,10.752c0.4541,0.7456,0.8779,1.5073,1.2685,2.2851
		c0.7813,1.5557,1.436,3.1753,1.919,4.8707c0.2617,0.9023,0.4829,1.8139,0.663,2.7382c0.8384,4.2647,0.813,8.7505-0.2407,13.4107
		c-1.2304-1.4473-2.563-2.8379-3.9731-4.1699c-0.0127-0.4161-0.0015-0.8321-0.0322-1.2481
		c-0.293-3.897-1.3194-7.7119-3.1221-11.0781c-1.4107-2.6489-3.3247-4.9839-5.5718-6.8628
		c-0.4111-0.7207-0.8193-1.4458-1.2656-2.1392c-2.542-3.9399-5.6182-7.5034-8.4868-11.1914
		c-0.6182-0.7524-1.251-1.4936-1.8999-2.2153c-3.9034-4.3399-8.4537-8.0903-13.6236-10.8569
		c-1.0088-0.5928-2.0483-1.1397-3.1064-1.6607C159.6348,125.9725,160.3154,124.7688,161.0898,123.6438z M200.082,178.9817
		c-0.3027,1.2871-0.6694,2.586-1.1362,3.8985c-0.3745,1.0078-0.7856,1.9883-1.229,2.9492c-0.3237,0.6934-0.668,1.3789-1.0264,2.0527
		c-0.3569,0.6739-0.7363,1.336-1.1269,1.9942c-0.9673,1.4804-1.9873,2.914-3.0454,4.3203
		c-0.5244,0.7031-1.0635,1.4004-1.6035,2.0898c-0.5406,0.6914-1.0904,1.3692-1.6353,2.0508
		c0.4941-1.0644,0.9897-2.1269,1.4692-3.2129c1.4732-3.3672,2.9058-6.8183,4.104-10.4297c0.9742-3.1289,1.4141-6.459,1.3472-9.8125
		C197.5767,176.1927,198.8789,177.5599,200.082,178.9817z M195.8457,174.181c-1.1445-1.0606-2.3286-2.0943-3.5732-3.0728
		c-0.2007-0.1562-0.419-0.2959-0.6231-0.4492c0.0415-3.666-0.5244-7.3252-1.9619-10.8823c-0.4624-1.2115-1.02-2.4004-1.6895-3.5655
		c1.8887,1.7339,3.5157,3.7964,4.7461,6.1123c1.7754,3.3228,2.7911,7.0952,3.0777,10.9512
		C195.8442,173.5755,195.833,173.8782,195.8457,174.181z M172.2847,139.3411c0.5468,0.6724,1.0327,1.3706,1.4726,2.0879
		c0.4385,0.7153,0.8223,1.4502,1.1587,2.2007c1.106,2.1343,1.6162,4.3721,1.7466,6.6445c-0.3887-0.0762-0.7773-0.1767-1.168-0.2324
		c-3.5175-0.5068-7.0381-0.2871-10.3437,0.4443c-0.5322,0.1231-1.0488,0.2901-1.5669,0.4483
		c-0.022-0.0274-0.0493-0.0498-0.0718-0.0767c-2.5146-2.9614-4.3779-6.4101-5.3535-10.0439
		c-0.8125-3.0157-0.9595-6.1602-0.4268-9.1358C163.2891,131.9427,168.6016,134.7762,172.2847,139.3411z M176.6787,150.5853
		c0.1245,2.9897-0.4111,6.0356-1.2749,8.9873c-0.0288,0.0986-0.0669,0.1943-0.0972,0.2934
		c-0.8657-0.5454-1.7309-1.084-2.5981-1.6416c-1.6782-1.0937-3.3882-2.1357-4.9565-3.3218
		c-1.4502-1.1157-2.7637-2.3808-3.9527-3.7422c0.4688-0.1372,0.9341-0.29,1.4155-0.3984c3.2686-0.7202,6.7637-0.9277,10.2383-0.4238
		C175.8628,150.3987,176.269,150.5037,176.6787,150.5853z M149.833,259.97c-0.585,0.8125-1.2544,1.5996-1.9604,2.3594
		c-0.9483,1.0977-2.0689,2.0762-3.1094,3.1133c-0.0274-0.1758-0.0493-0.3496-0.0781-0.5235
		c-0.7207-4.1718-2.0704-8.248-3.8809-12.125c-0.6807-3.0644-1.8105-6.748-3.8696-10.6796
		c-2.1089-3.9727-5.1612-8.2579-9.6411-11.8008c-4.4996-3.4688-10.1109-6.418-16.5498-8.2559
		c-6.4151-1.8359-13.7481-2.4473-21.1451-0.9492c-2.1323,0.4101-4.2602,0.9844-6.3769,1.6758
		c-0.7998-2.1192-1.4024-4.3145-1.7564-6.5489c-0.2007-1.25-0.3232-2.5058-0.3725-3.7714c-0.1182-1.4317-0.107-2.9063,0.0302-4.3887
		c0.7779-8.0977,4.8116-16.4141,12.5445-20.082c4.018-1.875,8.664-1.8614,12.6929-0.336c1.3437,0.5039,2.6171,1.1778,3.7836,1.9922
		c1.1573,0.8008,2.2222,1.7637,3.1255,2.8594c0.8975,1.1035,1.6499,2.3476,2.168,3.6758c0.105-1.295,0.3838-2.5918,0.8618-3.7891
		c0.9917,2.7383,2.2061,5.3242,3.5991,7.6973c3.377,5.7793,7.6294,10.4824,12.1079,13.9785
		c4.5455,3.4551,9.4561,5.3476,13.8291,6.4004c1.0201,0.2422,2.0118,0.4297,2.9776,0.5859
		c-0.7461,1.334-1.6738,2.5938-2.8452,3.7207c-0.7857,0.8965-1.6114,1.7676-2.4258,2.6289
		c-3.9028,4.041-4.7827,10.6914-0.7217,14.8613c0.6948,0.8321,1.46,1.5938,2.2442,2.3301c2.354,2.209,4.8769,4.1934,6.1582,7.1875
		C152.5264,254.8548,151.5811,257.5345,149.833,259.97z M116.4478,192.0501c0.0668-0.1523,0.121-0.3086,0.1958-0.457
		c0.706-1.4063,1.7436-2.627,3.2085-3.4688c1.8217-1.0273,3.9223-1.6933,6.0039-1.5312c1.2812,0.1113,2.5341,0.3437,3.7548,0.6738
		c6.2207,1.7051,11.4864,5.6836,15.793,10.6309c5.5225,6.2832,7.416,15.8964,3.457,23.0761
		c-0.9741-0.1601-1.9731-0.3554-3.0029-0.6035c-4.3574-1.0703-9.2392-2.9746-13.7495-6.4316
		c-4.4419-3.4961-8.6704-8.1992-12.0142-13.961C118.6729,197.5364,117.4404,194.8724,116.4478,192.0501z M157.3237,221.513
		c-0.247,0.0078-0.5053,0.0098-0.7588,0.0137c-0.0302-0.6114-0.0571-1.2246-0.1035-1.834c-0.0923-1.2285-0.2153-2.4512-0.3906-3.666
		c-0.752-5.1309-2.3477-9.875-5.1094-14.5977c-4.4419-7.6094-11.5713-12.0039-19.2964-14.8379
		c-1.1328-0.4336-2.2773-0.832-3.4262-1.207c-1.1509-0.375-2.3047-0.7188-3.4634-1.0449c-0.8848-0.2364-1.7754-0.4454-2.668-0.627
		c-1.7915-0.3613-3.6035-0.6152-5.4238-0.7539c-0.8003-0.0566-1.6065-0.0586-2.4131-0.0781
		c-0.124-1.0059-0.2183-2.0215-0.269-3.0508c-0.3843-6.4512,0.5161-13.2056,2.4321-19.8984
		c1.6094,2.4658,4.0879,4.6411,7.6323,6.3393c0.5864,0.2686,1.1797,0.4844,1.7754,0.6465c2.5059,0.6953,5.1162,0.5098,7.5786-0.459
		c1.6035-0.6406,3.001-1.6352,4.1216-2.8657c0.3731-0.4111,0.7158-0.8482,1.0234-1.3071c1.8326-2.7251,2.3204-6.5122,0.7281-9.4703
		c-0.7539-1.4165-2.2871-2.3173-3.9092-2.4335c-0.5693-0.0557-1.1445-0.0337-1.7022,0.0654
		c-0.5532,0.1001-1.0874,0.2759-1.5703,0.5259c-0.4843,0.2485-0.9194,0.5703-1.2778,0.9672
		c-0.8032,0.8877-1.0698,2.1182-0.9419,3.2706c-0.0415-0.6631,0.1641-1.5191,0.9146-1.667c0.6342-0.1529,1.2465-0.0528,1.809,0.1928
		c0.564,0.2486,1.0821,0.6407,1.5298,1.0743c0.8228,0.811,1.2178,2,1.2002,3.1347c-0.0093,0.3877-0.0635,0.7749-0.164,1.1524
		c-0.6568,2.539-3.1045,4.2397-5.7935,4.0341c-2.3555-0.2089-4.4453-1.3466-5.8076-3.1923
		c-0.4112-0.5581-0.7525-1.1475-1.0298-1.7627c-3.5938-7.982,3.4521-20.0743,12.688-18.9917
		c4.0532,0.4731,5.6758,1.9824,7.1055,4.872c0.2851,0.5772,0.561,1.2095,0.8349,1.9014c-0.1626-0.416-0.3057-0.8208-0.4302-1.2158
		c-0.1225-0.3941-0.2231-0.7798-0.2998-1.1524c-0.7046-3.3676,0.416-5.9257,2.5117-7.789c0.523-0.4668,1.1094-0.8892,1.7408-1.27
		c0.6342-0.3829,1.3149-0.7237,2.0337-1.0264c0.8095-0.3765,1.6416-0.6983,2.4878-0.9629c0.8447-0.2647,1.7055-0.4717,2.5742-0.6167
		c1.2207-0.2153,2.4428-0.2915,3.6577-0.2534c-0.5342,3.0058-0.3892,6.1777,0.4287,9.2182c0.98,3.669,2.8589,7.147,5.3867,10.1333
		c-2.5835,0.8164-4.9868,2.0274-7.0346,3.6182c-2.5665,1.959-4.4786,4.5039-5.9229,7.1416
		c-2.8657,5.3125-3.3486,11.3706-1.6592,16.2163c0.8467,2.4199,2.2285,4.5137,3.9019,6.1016
		c1.6831,1.5976,3.7534,2.5351,5.7505,2.8887c2.0048,0.3593,3.9492,0.1484,5.5908-0.4278c1.6323-0.584,3.0459-1.4531,3.8999-2.6172
		c0.875-1.1406,1.2798-2.3925,1.4297-3.4765c0.0161-0.1309,0.021-0.25,0.0302-0.3731c0.711-2.4492,0.3697-5.1738-1.5141-7.2187
		c-1.8613-1.9595-4.4512-2.8872-7.0684-2.4087c-2.3462,0.4785-4.2539,2.1489-5.1509,4.3481
		c-0.7207,1.7676-0.4941,3.7813,0.5752,5.4004c0.9307,1.3828,2.335,2.211,3.983,2.3613c1.7866,0.1172,3.4091-0.9492,4.0961-2.5918
		c0.5132-1.2187-0.1611-2.8046-1.3789-3.3183c1.8345,0.7363,3.3008,2.1211,4.1773,3.9648c0.5181,1.1426,0.2871,2.5645-0.6406,3.4141
		l0.1577,0.3535c1.2783-1.0723,2.2265-2.5527,2.7241-4.1621c-0.0098,0.0762-0.0098,0.1465-0.021,0.2266
		c-0.1562,1.0781-0.5674,2.3203-1.4375,3.4511c-0.8545,1.1465-2.2632,2-3.8857,2.5723c-1.6338,0.5645-3.5655,0.7637-5.5479,0.3984
		c-1.9809-0.3613-4.0229-1.2988-5.6758-2.8847c-1.6523-1.5801-3.0102-3.6582-3.8393-6.0586
		c-1.6529-4.8008-1.149-10.8032,1.707-16.0528c1.4346-2.6074,3.3389-5.124,5.875-7.0478c2.0635-1.5874,4.4863-2.7905,7.0889-3.5908
		c1.2256,1.417,2.5869,2.7319,4.0927,3.8872c1.5923,1.208,3.2945,2.2427,4.979,3.3374c0.8863,0.5708,1.7725,1.122,2.6602,1.6802
		c-0.2646,0.8603-0.5371,1.7177-0.8384,2.5532c-0.2802,0.7822-0.4604,1.5888-0.5386,2.4033
		c-0.0781,0.8159-0.0493,1.6353,0.0811,2.4419c0.3286,1.9023,1.1733,3.5439,2.5391,5.0288
		c1.6733,1.8398,3.5986,3.5625,4.5473,5.7441c0.312,0.7305,0.5196,1.5079,0.5703,2.3633
		c-0.0859,6.2071-6.061,9.4961-10.4043,13.3692c-3.0649,2.7363-4.6171,6.5371-3.8886,10.457
		c0.2358,1.2402,0.5288,2.4844,0.6997,3.7285c0.1704,1.2442,0.2134,2.4883-0.0464,3.7402c-0.4414,2.754-0.9385,5.502-1.4453,8.2461
		C165.3037,220.5696,162.2085,221.3821,157.3237,221.513z M168.4722,279.8938c-0.2691-0.8378-0.5308-1.6777-0.7886-2.5214
		c-0.2617-0.9102-0.5088-1.8282-0.7412-2.7539c-0.6983-2.7657-1.2818-5.5625-1.6992-8.3965
		c-0.1353-0.9942-0.2564-1.9942-0.3599-2.9961c-0.2041-2.002-0.3428-4.0098-0.416-6.0235
		c-0.0274-0.6503-0.0464-1.2968-0.0654-1.9453c-0.0289-0.9726-0.045-1.9472-0.045-2.9258
		c0.0782-8.0039,1.2085-15.9609,3.062-23.7792c0.2598-0.9747,0.5337-1.9454,0.8301-2.9102
		c1.771-5.7832,4.1934-11.3262,7.8096-16.2891c0.6406-1.0175,1.2754-2.039,1.9082-3.0644
		c4.4243-7.1641,8.6016-14.4766,11.2485-22.541c0.378-1.1153,0.7237-2.2383,1.0284-3.3731c0.83-3.0859,1.3276-6.2285,1.3945-9.3677
		c0.1499,0.1114,0.3105,0.2168,0.459,0.3301c1.31,1.0279,2.561,2.1118,3.7597,3.2329c0.107,3.4258-0.3286,6.834-1.3198,10.0313
		c-1.189,3.5801-2.6186,7.039-4.0801,10.3965c-0.6469,1.4707-1.3115,2.916-1.9795,4.3476c-1.831,2.2871-3.6718,4.5606-5.5063,6.8379
		c-0.6631,0.8242-1.3198,1.6465-1.9766,2.4746c-3.2768,4.0274-5.9463,8.4863-8.0263,13.211
		c-0.5181,1.1816-1.001,2.3808-1.4517,3.5918c-5.9145,17.039-6.2368,35.7421-2.7046,53.3496
		c0.3809,1.8437,0.8208,3.6738,1.3193,5.4863c0.2393,0.8711,0.4942,1.7363,0.7618,2.5976
		C170.0645,284.5677,169.2437,282.2376,168.4722,279.8938z M170.584,278.4466c-3.1621-13.2129-2.6201-26.5391-0.6851-40.2481
		c0.6963-4.9121,2.1006-9.4336,3.8535-13.9082c0.5323-1.3261,1.1128-2.6328,1.7422-3.9179
		c1.8838-3.8555,4.1836-7.5137,6.8643-10.8848c0.6186-0.8223,1.2353-1.6465,1.852-2.4688c0.5308-0.707,1.0679-1.4121,1.6036-2.1152
		c-1.5347,3.1211-3.0791,6.1621-4.5728,9.1309c-6.5474,11.8047-10.4043,23.5449-11.8545,33.6484
		c-1.5063,10.1192-0.8369,18.4902,0.397,24.0508c0.1719,0.7832,0.3471,1.498,0.5224,2.1738
		c0.1963,2.1582,0.4307,4.3164,0.6949,6.4707C170.8628,279.7356,170.7148,279.0872,170.584,278.4466z M171.207,244.3392
		c-0.1001,0.6543-0.1958,1.3086-0.2817,1.9648c-0.2871,1.9844-0.5166,3.9707-0.6968,5.9629
		c-0.1797,1.9902-0.3042,3.9844-0.3823,5.9785c-0.2373,5.1465-0.0161,10.2949,0.4414,15.4297
		c-0.1528-0.6094-0.3042-1.2578-0.4526-1.9531c-1.2017-5.5606-1.8247-13.9219-0.2823-24.0117
		c1.4888-10.084,5.3711-21.7676,11.941-33.5508c1.7133-3.3907,3.4917-6.8848,5.25-10.4805
		c1.0249-1.3359,2.0605-2.6621,3.1269-3.9707c0.5723-0.7148,1.1411-1.4297,1.7036-2.1445c1.6846-2.1504,3.3071-4.3223,4.7593-6.6407
		c0.395-0.6718,0.7778-1.3554,1.1426-2.0468c0.3696-0.6895,0.7221-1.3867,1.0615-2.0918c0.2471-0.6094,0.4878-1.1973,0.7173-1.7735
		c0.6758-1.6757,1.2656-3.2558,1.7148-4.9238c1.9634,2.459,3.666,5.0527,5.0127,7.7656c3.0215,6.168,4.1978,12.7559,4.1533,18.8535
		c-3.352,0.5684-6.686,1.1719-9.9438,2.0977c-0.9019,0.2598-1.7979,0.5391-2.6856,0.8457
		c-0.8876,0.3066-1.7641,0.6406-2.6391,1.0039c-0.6968,0.3125-1.3882,0.6504-2.0703,1.0137
		c-1.3052,0.6621-2.5806,1.3808-3.814,2.1523c-1.0327,0.6348-2.0351,1.3164-2.9995,2.0371
		c-0.9629,0.7227-1.8901,1.4883-2.7798,2.3028c-7.0381,6.2636-10.082,15.1191-11.6777,24.2265
		C171.4146,243.0364,171.3062,243.6888,171.207,244.3392z M172.0933,271.4935c-0.3252-4.5215-0.5337-9.0547-0.5308-13.5918
		c0.0767-2.1875,0.2666-4.3633,0.6201-6.5176c0.3555-2.1485,0.8721-4.2735,1.6084-6.3574c0.21-0.5723,0.4365-1.1387,0.6851-1.6973
		c0.247-0.5586,0.5132-1.1074,0.7954-1.6465c2.8257-5.3965,7.3999-9.8086,13.3623-11.7266
		c1.0249-0.4257,2.0386-0.8105,3.0332-1.2011c2.9834-1.1699,5.7915-2.3789,8.3208-4.8574c2.3892-2.3418,3.2339-5.5586,4.9443-8.2911
		c0.3408-0.5468,0.7188-1.0742,1.149-1.5703c0.3603-0.4472,0.7666-0.8574,1.2094-1.2207c0.7715-0.6992,1.645-1.1269,2.5694-1.4062
		c-0.169,1.4922-0.4063,2.9492-0.7061,4.3633c-0.521,2.2265-1.2524,4.3281-2.1533,6.2675c-3.4727,1.2227-6.6616,2.75-9.5005,4.4336
		c-6.418,3.7793-11.1836,8.5059-14.6021,13.1192c-3.4506,4.623-5.6503,9.1328-7.1801,13.0996
		c-1.5078,3.9844-2.354,7.4551-2.8452,10.3457c-0.502,2.8926-0.6822,5.2051-0.7491,6.9863
		C172.1079,270.5696,172.0981,271.0462,172.0933,271.4935z M173.123,293.1399c0.0606,0.1446,0.1211,0.2911,0.1802,0.4356
		c0.0239,0.0879,0.0415,0.1758,0.0655,0.2637C173.2871,293.6067,173.2061,293.3724,173.123,293.1399z M182.6904,244.4349
		c-0.4892,0.6347-0.9658,1.2871-1.4233,1.955c-5.6323,7.586-8.3594,16.6856-9.0718,25.9707
		c0.0191-0.6464,0.0542-1.414,0.1099-2.3242c0.123-1.7715,0.3681-4.0722,0.9311-6.9316c0.5547-2.8594,1.4644-6.2813,3.0264-10.1973
		c1.5796-3.9004,3.8188-8.3203,7.271-12.832c3.4331-4.5098,8.1299-9.082,14.4668-12.75c2.5244-1.4727,5.3218-2.8203,8.3403-3.9375
		c-0.0127,0.0254-0.0239,0.0547-0.0381,0.0801c-0.5849,1.0937-1.2114,2.1328-1.8711,3.1132
		c-0.1084,0.0489-0.2168,0.086-0.3237,0.1348c-1.3481,0.5664-2.6631,1.2168-3.9463,1.9629
		c-0.9497,0.5098-1.8803,1.0625-2.7925,1.6484C191.8867,233.847,187.0288,238.7376,182.6904,244.4349z M210.9248,247.8978
		c-0.5786,1.1503-1.21,2.2539-1.7837,3.2753c-0.6152,1.084-1.2222,2.1465-1.7358,3.1875c-0.086,0.1778-0.1529,0.3516-0.2339,0.5313
		c-3.8286,1.4141-7.3696,2.1914-10.3775,2.6543c-3.7646,0.5996-6.7368,0.6601-8.7387,0.6055
		c-0.9912-0.0313-1.7451-0.0821-2.2569-0.125c0.3238-2.1758,1.17-4.2852,2.6919-6.1582c0.5899-0.8067,1.2705-1.5352,2.0484-2.1407
		c0.7793-0.6035,1.6523-1.082,2.6294-1.3925c3.4873-1.1036,5.9643,0.6269,8.9653,1.9843c-1.4297-1.4179-2.2886-2.6894-2.6108-4.0918
		c-0.3189-1.4023-0.0987-2.9336,0.6313-4.8711c0.3457-0.8554,0.7236-1.7031,1.1441-2.5351
		c0.5659-1.2559,1.2514-2.4531,2.0371-3.5762c0.789-1.123,1.6767-2.1738,2.6518-3.1328c1.417-1.4082,3.0093-2.6152,4.729-3.584
		c0.8623-0.4844,1.7549-0.9101,2.6743-1.2734c1.2305-0.4922,2.4961-0.8594,3.7774-1.1094c0.9018-0.1738,1.8027-0.2969,2.708-0.3711
		c2.3286-0.2422,4.582-0.1211,6.7383,0.3027c2.6841,0.5215,5.1909,1.5118,7.4829,2.8633
		c-2.5117,5.4629-5.6802,10.2559-9.169,14.2031c-3.6513,4.0293-7.7827,6.9434-11.8022,9.0762
		c0.1514-0.3887,0.3027-0.7793,0.4477-1.1836c0.3492-0.9648,0.6729-1.9687,0.9341-2.9922
		c1.1255-3.7168,0.8531-8.6543-2.8208-10.8515c0.8272,1.1777,1.1826,2.6054,1.1983,3.9922c0.0112,1.414-0.3169,2.8515-0.8096,4.1504
		C211.7456,246.2317,211.3452,247.095,210.9248,247.8978z M243.6436,238.304c0.5576,0.8652,1.0742,1.7637,1.5488,2.6797
		c1.6338,2.9258,2.6699,6.0586,3.2099,9.2851c0.1788,1.0743,0.3028,2.1583,0.375,3.2481c0.2452,8.4258-0.6298,19.6191-9.33,23.5703
		c-3.6231,1.6309-8.2256-0.2344-10.1734-3.7187c-0.8305-1.5098-1.2529-3.2305-0.9067-4.9356
		c0.9785-4.4707,2.9277-8.8867,1.8628-13.4844c-0.1973-0.8339-0.4907-1.6601-0.9082-2.4765c-0.44-1.0235-0.9912-2.002-1.6416-2.9082
		c-0.6519-0.9082-1.4058-1.7422-2.2456-2.4766c0.9785,1.7949,1.2544,3.9316,0.9004,5.959c-0.3506,2.0273-1.334,3.9434-2.8643,5.3008
		c-1.2495,1.0058-2.8989,1.8164-4.5898,2.1152c-1.6866,0.3008-3.4141,0.0899-4.8116-0.9629
		c-0.9101-0.6836-1.4267-1.4551-1.6718-2.2812c-0.2491-0.8282-0.2315-1.709-0.0625-2.6114c0.059-0.2578,0.0625-0.5566,0.1626-0.8379
		c0.1816-0.4335,0.3681-0.8867,0.5532-1.3515c4.0849-2.127,8.3003-5.0567,12.0249-9.1348
		c3.5146-3.9492,6.7036-8.7363,9.2392-14.2012C238.0684,231.345,241.2417,234.5696,243.6436,238.304z M236.1001,224.0677
		c-0.3408,0.9453-0.7012,1.875-1.0791,2.789c-2.6074-1.1425-5.3184-2.041-8.0947-2.6152c-1.7163-0.3281-3.4683-0.5273-5.253-0.5898
		c-1.4506-0.086-2.915-0.0762-4.3911,0.041c-0.9516,0.0449-1.9028,0.123-2.8481,0.2363c-0.9434,0.1152-1.8887,0.2695-2.8242,0.457
		c-1.2862,0.2461-2.5533,0.5567-3.8062,0.9453c-1.0659,0.3262-2.1162,0.7227-3.1523,1.1622c0.625-0.9375,1.2256-1.918,1.7851-2.9551
		c0.0381-0.0723,0.0703-0.1504,0.1099-0.2227c4.437-1.6211,9.3618-2.7265,14.7202-2.8769c4.5264-0.1075,9.3398,0.4746,14.0493,2.164
		c0.3716,0.1387,0.7446,0.3106,1.1157,0.459C236.3184,223.3958,236.2183,223.7396,236.1001,224.0677z M238.7075,212.9642
		c0.043,0,0.1231,1.0918,0.1675,1.0898c-0.4399,3.1191-1.1714,5.041-2.0801,7.9082c-0.3633-0.1465-0.7251-0.3105-1.0918-0.4492
		c-4.8706-1.7363-9.8208-2.3164-14.4648-2.1914c-5.0894,0.1582-9.7735,1.166-14.0274,2.6426
		c0.8799-1.9063,1.5972-3.9688,2.1153-6.1563c0.312-1.4414,0.5576-2.9316,0.73-4.459c2.0034-0.5527,4.2392-0.3633,6.2919-0.164
		c0.7701,0.0527,1.5669,0.0879,2.397,0.0703c0.6216-0.0078,1.2481-0.1016,1.8633-0.2617c0.6123-0.1622,1.2144-0.3868,1.7866-0.6719
		c0.6089-0.2988,1.1763-0.6367,1.6958-1.0352c0.5147-0.3965,0.982-0.8554,1.3897-1.4004c1.2578-1.6035,2.123-3.4316,3.3379-5.1308
		c1.4453-2.0254,3.5444-3.2559,5.2627-4.9785c0.58-0.5469,1.1489-1.1075,1.7002-1.6836c0.7812-0.8164,1.5141-1.6778,2.2236-2.5567
		c0.3662,1.711,0.6772,3.4258,0.894,5.1348"/>
</g>
<g id="herz">
	<g id="layer1_3_">
		<path id="path7_3_" fill="#FF4DCD" d="M88.3506,202.889c-2.21,2.3457-2.0977,6.0449,0.25,8.2539
			c4.7754,4.4961,10.5615,0.8574,18.3721,2.0195c-1.7696-7.5195,1.499-13.8652-3.1241-18.2168
			c-2.3466-2.209-6.0459-2.0977-8.2548,0.2481c-1.6036,1.7031-1.9766,4.1152-1.169,6.1562
			C92.3379,200.6663,89.9531,201.1858,88.3506,202.889L88.3506,202.889z"/>
	</g>
	<g id="layer1">
		<path id="path7" fill="#FF007F" d="M205.7617,15.0623c-6.4971-7.7529-18.0615-8.7725-25.8144-2.2769
			c-15.7735,13.2168-6.5777,32.5918-13.0874,56.4991c24.0859-2.7334,42.6479,9.7993,57.9165-2.9937
			c7.7529-6.4966,8.7744-18.0615,2.2778-25.8149c-4.7114-5.624-12.0879-7.6826-18.7441-5.9204
			C211.2075,28.3084,210.4731,20.6868,205.7617,15.0623L205.7617,15.0623z"/>
	</g>
	<g id="layer1_1_">
		<path id="path7_1_" fill="#FF4DCD" d="M95.3135,62.9148c-8.3946,4.1763-11.8174,14.378-7.6421,22.7725
			c8.4956,17.0786,27.9487,12.9868,48.0859,24.0313c2.753-22.2999,18.0684-36.315,9.8452-52.8467
			c-4.1757-8.3936-14.3779-11.8198-22.7724-7.6441c-6.0899,3.0288-9.5415,9.231-9.3955,15.6118
			C108.4321,60.8748,101.4033,59.8865,95.3135,62.9148L95.3135,62.9148z"/>
	</g>
	<g id="layer1_2_">
		<path id="path7_2_" fill="#FF007F" d="M226.7148,133.9407c-2.8349-1.5351-6.3813-0.4804-7.9165,2.3535
			c-3.124,5.7676,1.8755,10.4297,2.751,18.2784c6.8169-3.6368,13.7876-2.1006,16.8111-7.6836
			c1.5346-2.835,0.4804-6.3809-2.3541-7.9161c-2.0566-1.1142-4.4834-0.8583-6.2495,0.4454
			C229.8823,137.2269,228.7705,135.054,226.7148,133.9407L226.7148,133.9407z"/>
	</g>
	<g id="layer1_5_">
		<path id="path7_5_" fill="#FF4DCD" d="M94.7109,146.5086c-2.2099,2.3457-2.0976,6.0449,0.25,8.2539
			c4.7754,4.4961,10.5616,0.8574,18.3721,2.0195c-1.7695-7.5195,1.499-13.8652-3.124-18.2168
			c-2.3467-2.209-6.0459-2.0976-8.2549,0.2481c-1.6035,1.7031-1.9766,4.1152-1.1689,6.1562
			C98.6982,144.2859,96.3135,144.8055,94.7109,146.5086L94.7109,146.5086z"/>
	</g>
	<g id="herz_1_">
		<g id="layer1_4_">
			<path id="path7_4_" fill="#FF007F" d="M247.8486,198.5013c-2.083-2.4864-5.7905-2.8125-8.2754-0.7285
				c-5.0566,4.2343-2.1093,10.4472-4.1962,18.1113c7.7216-0.877,13.6728,3.1406,18.5683-0.959
				c2.4854-2.084,2.8135-5.793,0.7295-8.2754c-1.5098-1.8047-3.876-2.4648-6.0088-1.8984
				C249.5957,202.7474,249.3604,200.304,247.8486,198.5013L247.8486,198.5013z"/>
		</g>
	</g>
</g>
</svg>
